<?xml version="1.0" encoding="UTF-8" standalone="no"?>
<!-- Created with Inkscape (http://www.inkscape.org/) -->

<svg
   xmlns:dc="http://purl.org/dc/elements/1.1/"
   xmlns:cc="http://creativecommons.org/ns#"
   xmlns:rdf="http://www.w3.org/1999/02/22-rdf-syntax-ns#"
   xmlns:svg="http://www.w3.org/2000/svg"
   xmlns="http://www.w3.org/2000/svg"
   xmlns:sodipodi="http://sodipodi.sourceforge.net/DTD/sodipodi-0.dtd"
   xmlns:inkscape="http://www.inkscape.org/namespaces/inkscape"
   id="svg3423"
   version="1.1"
   inkscape:version="0.48.4 r9939"
   width="352.96875"
   height="97.03125"
   xml:space="preserve"
   sodipodi:docname="bcstandards.pdf"><title
     id="title3927">CUNY Baruch College Logo</title><metadata
     id="metadata3429"><rdf:RDF><cc:Work
         rdf:about=""><dc:format>image/svg+xml</dc:format><dc:type
           rdf:resource="http://purl.org/dc/dcmitype/StillImage" /><dc:title>CUNY Baruch College Logo</dc:title></cc:Work></rdf:RDF></metadata><defs
     id="defs3427"><clipPath
       clipPathUnits="userSpaceOnUse"
       id="clipPath3437"><path
         d="M 0,0 612,0 612,792 0,792 0,0 z"
         id="path3439"
         inkscape:connector-curvature="0" /></clipPath><clipPath
       clipPathUnits="userSpaceOnUse"
       id="clipPath3449"><path
         d="m 89.727,450.964 160.169,0 0,41.581 -160.169,0 0,-41.581 z"
         id="path3451"
         inkscape:connector-curvature="0" /></clipPath><clipPath
       clipPathUnits="userSpaceOnUse"
       id="clipPath3465"><path
         d="m 89.727,450.964 160.169,0 0,41.581 -160.169,0 0,-41.581 z"
         id="path3467"
         inkscape:connector-curvature="0" /></clipPath><clipPath
       clipPathUnits="userSpaceOnUse"
       id="clipPath3483"><path
         d="m 89.727,175.154 117.915,0 0,102.034 -117.915,0 0,-102.034 z"
         id="path3485"
         inkscape:connector-curvature="0" /></clipPath><clipPath
       clipPathUnits="userSpaceOnUse"
       id="clipPath3493"><path
         d="m 89.727,175.154 117.916,0 0,102.034 -117.916,0 0,-102.034 z"
         id="path3495"
         inkscape:connector-curvature="0" /></clipPath><clipPath
       clipPathUnits="userSpaceOnUse"
       id="clipPath3581"><path
         d="M 89.625,60 372,60 l 0,77.625 -282.375,0 0,-77.625 z"
         id="path3583"
         inkscape:connector-curvature="0" /></clipPath><clipPath
       clipPathUnits="userSpaceOnUse"
       id="clipPath3741"><path
         d="m 89.727,360 314.456,0 0,65.209 -314.456,0 0,-65.209 z"
         id="path3743"
         inkscape:connector-curvature="0" /></clipPath><clipPath
       clipPathUnits="userSpaceOnUse"
       id="clipPath3833"><path
         d="m 256.75,175.404 115,0 0,101.784 -115,0 0,-101.784 z"
         id="path3835"
         inkscape:connector-curvature="0" /></clipPath></defs><sodipodi:namedview
     pagecolor="#ffffff"
     bordercolor="#666666"
     borderopacity="1"
     objecttolerance="10"
     gridtolerance="10"
     guidetolerance="10"
     inkscape:pageopacity="0"
     inkscape:pageshadow="2"
     inkscape:window-width="1920"
     inkscape:window-height="1005"
     id="namedview3425"
     showgrid="false"
     fit-margin-top="0"
     fit-margin-left="0"
     fit-margin-right="0"
     fit-margin-bottom="0"
     inkscape:zoom="0.59"
     inkscape:cx="273.85858"
     inkscape:cy="409.83051"
     inkscape:window-x="-9"
     inkscape:window-y="-9"
     inkscape:window-maximized="1"
     inkscape:current-layer="g3577" /><g
     id="g3431"
     inkscape:groupmode="layer"
     inkscape:label="bcstandards"
     transform="matrix(1.25,0,0,-1.25,-108.64142,182.20074)"><g
       id="g3433"
       transform="translate(-2.7118644,8.1355932)"><g
         id="g3435"
         clip-path="url(#clipPath3437)"><g
           id="g3577"><g
             id="g3579"
             clip-path="url(#clipPath3581)"><path
               d="m 372,60 -282.375,0 0,77.625 282.375,0 L 372,60 z"
               style="fill:#18468b;fill-opacity:1;fill-rule:nonzero;stroke:none"
               id="path3585"
               inkscape:connector-curvature="0" /><path
               d="m 163.886,100.595 8.079,4.679 c 0,0 -1.037,-0.986 -0.891,-3.753 0,0 -0.165,-5.547 0,-6.226 0,0 0.079,-3.374 4.783,-2.814 0,0 2.928,0.514 2.928,3.653 0,0 0,9.635 -0.05,10.128 0,0 0.168,2.167 -1.574,1.732 0,0 8.394,4.915 8.887,5.26 0,0 -0.796,-0.522 -0.894,-2.694 l 0,-17.685 c 0,0 -0.058,-2.684 1.612,-2.991 0,0 -7.476,-0.07 -8.02,-0.021 l -0.011,2.566 c 0,0 -2.216,-3.139 -7.995,-3.139 0,0 -4.96,-0.14 -5.354,3.637 0,0 -0.245,4.195 -0.245,6.271 0,0 0.127,1.888 -1.255,1.397"
               style="fill:#ffffff;fill-opacity:1;fill-rule:nonzero;stroke:none"
               id="path3587"
               inkscape:connector-curvature="0" /><path
               d="m 209.335,118.148 7.729,4.464 c 0,0 0.146,-13.781 0.146,-14.375 0,0 1.533,3.654 7.462,4.595 0,0 6.749,1.087 7.149,-4.403 0.164,-2.236 0.129,-13.044 0.129,-15.995 0,0 0.029,-2.179 1.55,-2.612 0,0 -9.225,-0.008 -9.621,-0.008 0,0 1.378,0.589 1.485,2.667 0,0 0.196,12.401 -0.051,13.386 0,0 -0.044,3.456 -3.556,3.456 0,0 -3.828,-0.322 -4.328,-4.497 -0.257,-2.161 -0.119,-10.802 -0.119,-12.048 0,0 -0.152,-2.025 1.588,-2.964 l -9.563,0 c 0,0 1.596,0.705 1.604,2.913 0,0 -0.148,21.586 -0.148,22.625 0,0 0.178,3.415 -1.456,2.796"
               style="fill:#ffffff;fill-opacity:1;fill-rule:nonzero;stroke:none"
               id="path3589"
               inkscape:connector-curvature="0" /><path
               d="m 117.094,91.543 c 0,0 -5.229,-0.858 -5.436,2.024 -0.201,2.882 -0.041,15.083 -0.041,15.083 l -0.105,9.713 c -0.055,2.129 2.774,2.033 2.774,2.033 5.894,0 5.325,-5.936 5.325,-5.936 0,-3.238 -4.946,-7.223 -4.946,-7.223 l -0.039,-0.017 0.033,-0.008 c 0.464,-0.109 6.767,-1.569 7.226,-9.496 0,0 0.705,-5.508 -4.791,-6.173 m 11.607,7.506 c -0.99,7.542 -9.829,8.643 -9.829,8.643 6.266,3.693 6.816,6.998 6.816,7.807 0.153,5.609 -5.063,6.263 -5.063,6.263 -1.367,0.438 -17.703,0.157 -17.703,0.157 1.608,-0.889 1.576,-2.569 1.576,-2.569 0.099,-0.689 0.295,-26.523 0.295,-26.523 -0.311,-2.523 -1.822,-3.013 -1.822,-3.013 0.445,0 17.681,0.098 17.681,0.098 9.289,0.442 8.049,9.137 8.049,9.137"
               style="fill:#ffffff;fill-opacity:1;fill-rule:nonzero;stroke:none"
               id="path3591"
               inkscape:connector-curvature="0" /><path
               d="m 151.667,107.56 8.275,4.598 0.096,-4.873 c 0,0 0.878,4.578 5.523,5.423 0,0 5.896,1.21 5.756,-4.573 -0.005,-0.14 -7.053,-3.995 -7.053,-3.995 0,0 0.432,0.432 0.801,1.415 0.221,0.569 0.274,1.218 0.134,1.695 -0.653,2.126 -2.983,0.992 -3.817,0.083 0,0 -1.243,-0.816 -1.243,-4.099 0,0 0.051,-10.226 0,-10.722 0,0 0.03,-2.277 1.456,-2.698 0,0 -9.876,-0.04 -9.928,0.062 0,0 1.355,0.674 1.458,2.537 0.105,1.86 0.205,12.336 0.205,12.83 0,0 0.105,2.758 -1.663,2.317"
               style="fill:#ffffff;fill-opacity:1;fill-rule:nonzero;stroke:none"
               id="path3593"
               inkscape:connector-curvature="0" /><path
               d="m 132.455,103.378 0.161,6.721 c 0,0 3.991,2.951 8.524,3.006 0,0 7.758,0.327 8.69,-7.104 0,0 -0.221,-10.816 -0.329,-12.456 0,0 -0.164,-3.061 2.023,-3.661 l -8.689,0 c 0,0 0.547,11.91 0.329,13.005 0,0 -6.026,-3.396 -6.612,-6.394 -0.171,-0.866 -0.486,-4.041 2.623,-4.041 0.751,0 1.155,0.306 1.912,0.91 0,0 0.003,-2.754 0.003,-3.096 0,0 -1.481,-1.038 -5.358,-0.657 0,0 -6.173,0.538 -6.173,6.393 0,0.819 0.436,3.826 5.08,5.847 4.643,2.019 6.01,2.184 7.539,3.605 1.532,1.421 1.728,4.872 -1.638,5.136 -2.075,0.164 -5.191,-1.804 -8.085,-7.214"
               style="fill:#ffffff;fill-opacity:1;fill-rule:nonzero;stroke:none"
               id="path3595"
               inkscape:connector-curvature="0" /><path
               d="m 203.936,103.488 4.336,5.029 c 0,0 -3.175,4.955 -10.992,4.182 -8.918,-0.883 -10.993,-8.281 -10.915,-10.914 0.052,-1.784 -0.391,-10.683 9.907,-12.852 0,0 5.419,-1.314 11.69,2.479 l 1.467,6.113 c 0,0 -3.868,-5.959 -8.511,-6.034 0,0 -6.386,-0.87 -7.742,9.054 -1.241,9.056 4.331,10.14 5.726,10.14 0.778,0 5.345,-0.386 5.034,-7.197"
               style="fill:#ffffff;fill-opacity:1;fill-rule:nonzero;stroke:none"
               id="path3597"
               inkscape:connector-curvature="0" /><path
               d="m 254.664,107.755 c -1.727,2.12 -4.772,3.551 -7.547,3.551 -5.609,0 -10.233,-4.833 -10.233,-10.352 0,-2.626 1.134,-5.101 3.015,-6.951 1.878,-1.792 4.562,-3.103 7.218,-3.103 2.594,0 5.877,1.403 7.547,3.432 l 0,-1.971 c -2.115,-1.76 -4.715,-2.802 -7.487,-2.802 -6.265,0 -11.724,5.219 -11.724,11.516 0,6.382 5.37,11.573 11.754,11.573 2.715,0 5.458,-1.074 7.457,-2.924 l 0,-1.969 z"
               style="fill:#ffffff;fill-opacity:1;fill-rule:nonzero;stroke:none"
               id="path3599"
               inkscape:connector-curvature="0" /><path
               d="m 268.269,112.648 c -6.353,0 -11.664,-5.22 -11.664,-11.545 0,-6.325 5.339,-11.544 11.664,-11.544 6.325,0 11.666,5.219 11.666,11.544 0,6.325 -5.341,11.545 -11.666,11.545 m 0,-1.342 c 5.579,0 10.233,-4.655 10.233,-10.203 0,-5.518 -4.654,-10.203 -10.233,-10.203 -5.609,0 -10.233,4.653 -10.233,10.203 0,5.548 4.624,10.203 10.233,10.203"
               style="fill:#ffffff;fill-opacity:1;fill-rule:nonzero;stroke:none"
               id="path3601"
               inkscape:connector-curvature="0" /><path
               d="m 285.451,91.198 5.728,0 0,-1.342 -7.157,0 0,22.494 1.429,0 0,-21.152 z"
               style="fill:#ffffff;fill-opacity:1;fill-rule:nonzero;stroke:none"
               id="path3603"
               inkscape:connector-curvature="0" /><path
               d="m 296.402,91.198 5.728,0 0,-1.342 -7.161,0 0,22.494 1.433,0 0,-21.152 z"
               style="fill:#ffffff;fill-opacity:1;fill-rule:nonzero;stroke:none"
               id="path3605"
               inkscape:connector-curvature="0" /><path
               d="m 307.351,111.007 0,-8.173 9.07,0 0,-1.342 -9.07,0 0,-10.294 9.307,0 0,-1.342 -10.741,0 0,22.494 10.741,0 0,-1.343 -9.307,0 z"
               style="fill:#ffffff;fill-opacity:1;fill-rule:nonzero;stroke:none"
               id="path3607"
               inkscape:connector-curvature="0" /><path
               d="m 341.988,100.686 c 0.061,-2.835 -0.358,-5.311 -2.358,-7.489 -2.148,-2.327 -5.369,-3.638 -8.533,-3.638 -6.236,0 -11.546,5.249 -11.546,11.455 0,6.443 5.282,11.634 11.724,11.634 4.091,0 7.401,-2.029 9.758,-5.251 l -1.165,-0.924 c -1.999,2.983 -5.041,4.833 -8.681,4.833 -5.488,0 -10.202,-4.804 -10.202,-10.203 0,-5.55 4.593,-10.203 10.202,-10.203 2.416,0 4.774,0.985 6.623,2.476 1.942,1.641 2.655,3.519 2.747,5.966 l -8.057,0 0,1.344 9.488,0 z"
               style="fill:#ffffff;fill-opacity:1;fill-rule:nonzero;stroke:none"
               id="path3609"
               inkscape:connector-curvature="0" /><path
               d="m 347.507,111.007 0,-8.173 9.069,0 0,-1.342 -9.069,0 0,-10.294 9.306,0 0,-1.342 -10.738,0 0,22.494 10.738,0 0,-1.343 -9.306,0 z"
               style="fill:#ffffff;fill-opacity:1;fill-rule:nonzero;stroke:none"
               id="path3611"
               inkscape:connector-curvature="0" /><path
               d="m 160.647,73.038 -2.354,0 0,7.064 -1.947,0 0,1.994 6.248,0 0,-1.994 -1.947,0 0,-7.064 z"
               style="fill:#ffffff;fill-opacity:1;fill-rule:nonzero;stroke:none"
               id="path3613"
               inkscape:connector-curvature="0" /><path
               d="m 165.584,83.009 0,-4.589 0.025,0 c 0.504,0.672 1.117,0.985 1.969,0.985 1.563,0 2.32,-1.033 2.32,-2.595 l 0,-3.772 -2.187,0 0,3.159 c 0,0.721 -0.108,1.466 -0.985,1.466 -0.865,0 -1.142,-0.745 -1.142,-1.466 l 0,-3.159 -2.186,0 0,9.971 2.186,0 z"
               style="fill:#ffffff;fill-opacity:1;fill-rule:nonzero;stroke:none"
               id="path3615"
               inkscape:connector-curvature="0" /><path
               d="m 175.64,77.014 c -0.108,0.589 -0.649,0.974 -1.238,0.974 -0.636,0 -1.165,-0.337 -1.298,-0.974 l 2.536,0 z m 2.03,-1.261 -4.601,0 c 0,-0.889 0.469,-1.37 1.369,-1.37 0.469,0 0.806,0.156 1.046,0.565 l 2.102,0 c -0.348,-1.454 -1.73,-2.115 -3.135,-2.115 -2.043,0 -3.569,1.154 -3.569,3.28 0,2.055 1.406,3.292 3.412,3.292 2.138,0 3.376,-1.322 3.376,-3.424 l 0,-0.228 z"
               style="fill:#ffffff;fill-opacity:1;fill-rule:nonzero;stroke:none"
               id="path3617"
               inkscape:connector-curvature="0" /><path
               d="m 189.311,79.056 c -0.481,0.649 -1.261,0.998 -2.066,0.998 -1.443,0 -2.415,-1.106 -2.415,-2.511 0,-1.43 0.985,-2.463 2.45,-2.463 0.77,0 1.538,0.372 2.031,0.961 l 0,-2.823 c -0.781,-0.241 -1.346,-0.421 -2.079,-0.421 -1.261,0 -2.462,0.481 -3.4,1.334 -0.997,0.901 -1.453,2.079 -1.453,3.424 0,1.238 0.469,2.427 1.334,3.316 0.889,0.913 2.174,1.465 3.447,1.465 0.757,0 1.454,-0.168 2.151,-0.456 l 0,-2.824 z"
               style="fill:#ffffff;fill-opacity:1;fill-rule:nonzero;stroke:none"
               id="path3619"
               inkscape:connector-curvature="0" /><path
               d="m 192.902,73.038 -2.186,0 0,6.163 2.186,0 0,-6.163 z m 0.133,8.53 c 0,-0.673 -0.553,-1.226 -1.226,-1.226 -0.672,0 -1.225,0.553 -1.225,1.226 0,0.672 0.553,1.225 1.225,1.225 0.673,0 1.226,-0.553 1.226,-1.225"
               style="fill:#ffffff;fill-opacity:1;fill-rule:nonzero;stroke:none"
               id="path3621"
               inkscape:connector-curvature="0" /><path
               d="m 196.735,73.038 -2.187,0 0,4.361 -0.709,0 0,1.802 0.709,0 0,1.85 2.187,0 0,-1.85 1.237,0 0,-1.802 -1.237,0 0,-4.361 z"
               style="fill:#ffffff;fill-opacity:1;fill-rule:nonzero;stroke:none"
               id="path3623"
               inkscape:connector-curvature="0" /><path
               d="m 197.768,79.201 2.522,0 1.647,-3.16 1.609,3.16 2.487,0 -4.937,-9.239 -2.451,0 2.102,3.917 -2.979,5.322 z"
               style="fill:#ffffff;fill-opacity:1;fill-rule:nonzero;stroke:none"
               id="path3625"
               inkscape:connector-curvature="0" /><path
               d="m 218.551,82.096 0,-5.094 c 0,-1.165 -0.048,-2.319 -0.949,-3.195 -0.757,-0.745 -1.946,-1.01 -3.004,-1.01 -1.057,0 -2.246,0.265 -3.003,1.01 -0.901,0.876 -0.949,2.03 -0.949,3.195 l 0,5.094 2.354,0 0,-4.769 c 0,-1.178 0.085,-2.463 1.598,-2.463 1.514,0 1.599,1.285 1.599,2.463 l 0,4.769 2.354,0 z"
               style="fill:#ffffff;fill-opacity:1;fill-rule:nonzero;stroke:none"
               id="path3627"
               inkscape:connector-curvature="0" /><path
               d="m 222.179,78.408 0.024,0 c 0.505,0.745 1.117,0.997 1.97,0.997 1.659,0 2.318,-1.045 2.318,-2.559 l 0,-3.808 -2.186,0 0,3.003 c 0,0.589 0.097,1.622 -0.985,1.622 -0.889,0 -1.141,-0.661 -1.141,-1.43 l 0,-3.195 -2.187,0 0,6.163 2.187,0 0,-0.793 z"
               style="fill:#ffffff;fill-opacity:1;fill-rule:nonzero;stroke:none"
               id="path3629"
               inkscape:connector-curvature="0" /><path
               d="m 230.12,73.038 -2.187,0 0,6.163 2.187,0 0,-6.163 z m 0.132,8.53 c 0,-0.673 -0.553,-1.226 -1.226,-1.226 -0.672,0 -1.225,0.553 -1.225,1.226 0,0.672 0.553,1.225 1.225,1.225 0.673,0 1.226,-0.553 1.226,-1.225"
               style="fill:#ffffff;fill-opacity:1;fill-rule:nonzero;stroke:none"
               id="path3631"
               inkscape:connector-curvature="0" /><path
               d="m 234.589,76.041 1.465,3.16 2.451,0 -3.22,-6.163 -1.393,0 -3.232,6.163 2.451,0 1.478,-3.16 z"
               style="fill:#ffffff;fill-opacity:1;fill-rule:nonzero;stroke:none"
               id="path3633"
               inkscape:connector-curvature="0" /><path
               d="m 243.346,77.014 c -0.108,0.589 -0.648,0.974 -1.237,0.974 -0.637,0 -1.165,-0.337 -1.298,-0.974 l 2.535,0 z m 2.031,-1.261 -4.602,0 c 0,-0.889 0.469,-1.37 1.37,-1.37 0.468,0 0.805,0.156 1.045,0.565 l 2.102,0 c -0.348,-1.454 -1.73,-2.115 -3.135,-2.115 -2.042,0 -3.568,1.154 -3.568,3.28 0,2.055 1.406,3.292 3.412,3.292 2.138,0 3.376,-1.322 3.376,-3.424 l 0,-0.228 z"
               style="fill:#ffffff;fill-opacity:1;fill-rule:nonzero;stroke:none"
               id="path3635"
               inkscape:connector-curvature="0" /><path
               d="m 248.56,78.192 0.024,0 c 0.421,0.756 1.141,1.093 1.994,1.093 l 0.421,0 0,-2.102 c -0.3,0.168 -0.589,0.204 -0.925,0.204 -1.214,0 -1.514,-0.805 -1.514,-1.863 l 0,-2.486 -2.186,0 0,6.163 2.186,0 0,-1.009 z"
               style="fill:#ffffff;fill-opacity:1;fill-rule:nonzero;stroke:none"
               id="path3637"
               inkscape:connector-curvature="0" /><path
               d="m 255.888,77.615 c -0.337,0.18 -0.805,0.301 -1.177,0.301 -0.253,0 -0.685,-0.109 -0.685,-0.421 0,-0.421 0.685,-0.481 0.985,-0.541 1.021,-0.204 1.79,-0.685 1.79,-1.826 0,-1.622 -1.478,-2.295 -2.907,-2.295 -0.877,0 -1.742,0.253 -2.487,0.709 l 0.792,1.526 c 0.446,-0.312 1.191,-0.625 1.731,-0.625 0.276,0 0.684,0.133 0.684,0.469 0,0.48 -0.684,0.504 -1.369,0.685 -0.685,0.18 -1.37,0.516 -1.37,1.622 0,1.513 1.37,2.186 2.715,2.186 0.697,0 1.394,-0.108 2.031,-0.396 l -0.733,-1.394 z"
               style="fill:#ffffff;fill-opacity:1;fill-rule:nonzero;stroke:none"
               id="path3639"
               inkscape:connector-curvature="0" /><path
               d="m 260.165,73.038 -2.186,0 0,6.163 2.186,0 0,-6.163 z m 0.132,8.53 c 0,-0.673 -0.553,-1.226 -1.226,-1.226 -0.672,0 -1.225,0.553 -1.225,1.226 0,0.672 0.553,1.225 1.225,1.225 0.673,0 1.226,-0.553 1.226,-1.225"
               style="fill:#ffffff;fill-opacity:1;fill-rule:nonzero;stroke:none"
               id="path3641"
               inkscape:connector-curvature="0" /><path
               d="m 263.997,73.038 -2.187,0 0,4.361 -0.708,0 0,1.802 0.708,0 0,1.85 2.187,0 0,-1.85 1.237,0 0,-1.802 -1.237,0 0,-4.361 z"
               style="fill:#ffffff;fill-opacity:1;fill-rule:nonzero;stroke:none"
               id="path3643"
               inkscape:connector-curvature="0" /><path
               d="m 265.029,79.201 2.524,0 1.646,-3.16 1.61,3.16 2.486,0 -4.938,-9.239 -2.45,0 2.102,3.917 -2.98,5.322 z"
               style="fill:#ffffff;fill-opacity:1;fill-rule:nonzero;stroke:none"
               id="path3645"
               inkscape:connector-curvature="0" /><path
               d="m 279.758,76.113 c 0,-0.78 0.517,-1.381 1.406,-1.381 0.889,0 1.405,0.601 1.405,1.381 0,0.757 -0.516,1.394 -1.405,1.394 -0.889,0 -1.406,-0.637 -1.406,-1.394 m 5.117,0 c 0,-2.09 -1.729,-3.28 -3.711,-3.28 -1.971,0 -3.712,1.178 -3.712,3.28 0,2.102 1.729,3.292 3.712,3.292 1.982,0 3.711,-1.19 3.711,-3.292"
               style="fill:#ffffff;fill-opacity:1;fill-rule:nonzero;stroke:none"
               id="path3647"
               inkscape:connector-curvature="0" /><path
               d="m 288.263,73.038 -2.186,0 0,4.361 -0.769,0 0,1.802 0.769,0 0,0.781 c 0,0.853 0.024,1.477 0.624,2.162 0.541,0.637 1.322,0.985 2.151,0.985 0.336,0 0.637,-0.06 0.937,-0.216 l 0,-1.886 c -0.253,0.108 -0.48,0.204 -0.769,0.204 -0.564,0 -0.757,-0.336 -0.757,-1.033 l 0,-0.997 1.526,0 0,-1.802 -1.526,0 0,-4.361 z"
               style="fill:#ffffff;fill-opacity:1;fill-rule:nonzero;stroke:none"
               id="path3649"
               inkscape:connector-curvature="0" /><path
               d="m 294.691,82.096 2.354,0 4.313,-5.538 0.024,0 0,5.538 2.355,0 0,-9.058 -2.355,0 -4.313,5.55 -0.024,0 0,-5.55 -2.354,0 0,9.058 z"
               style="fill:#ffffff;fill-opacity:1;fill-rule:nonzero;stroke:none"
               id="path3651"
               inkscape:connector-curvature="0" /><path
               d="m 309.527,77.014 c -0.109,0.589 -0.649,0.974 -1.237,0.974 -0.637,0 -1.166,-0.337 -1.298,-0.974 l 2.535,0 z m 2.03,-1.261 -4.601,0 c 0,-0.889 0.468,-1.37 1.37,-1.37 0.468,0 0.804,0.156 1.045,0.565 l 2.102,0 c -0.348,-1.454 -1.73,-2.115 -3.136,-2.115 -2.042,0 -3.568,1.154 -3.568,3.28 0,2.055 1.406,3.292 3.413,3.292 2.138,0 3.375,-1.322 3.375,-3.424 l 0,-0.228 z"
               style="fill:#ffffff;fill-opacity:1;fill-rule:nonzero;stroke:none"
               id="path3653"
               inkscape:connector-curvature="0" /><path
               d="m 315.618,75.861 1.549,3.34 1.298,0 1.549,-3.34 1.551,3.34 2.414,0 -3.22,-6.163 -1.417,0 -1.526,3.376 -1.525,-3.376 -1.419,0 -3.219,6.163 2.427,0 1.538,-3.34 z"
               style="fill:#ffffff;fill-opacity:1;fill-rule:nonzero;stroke:none"
               id="path3655"
               inkscape:connector-curvature="0" /><path
               d="m 327.691,82.096 2.823,0 1.694,-2.463 1.694,2.463 2.823,0 -3.34,-4.709 0,-4.349 -2.355,0 0,4.349 -3.339,4.709 z"
               style="fill:#ffffff;fill-opacity:1;fill-rule:nonzero;stroke:none"
               id="path3657"
               inkscape:connector-curvature="0" /><path
               d="m 337.627,76.113 c 0,-0.78 0.517,-1.381 1.406,-1.381 0.889,0 1.406,0.601 1.406,1.381 0,0.757 -0.517,1.394 -1.406,1.394 -0.889,0 -1.406,-0.637 -1.406,-1.394 m 5.118,0 c 0,-2.09 -1.73,-3.28 -3.712,-3.28 -1.97,0 -3.713,1.178 -3.713,3.28 0,2.102 1.731,3.292 3.713,3.292 1.982,0 3.712,-1.19 3.712,-3.292"
               style="fill:#ffffff;fill-opacity:1;fill-rule:nonzero;stroke:none"
               id="path3659"
               inkscape:connector-curvature="0" /><path
               d="m 345.916,78.192 0.024,0 c 0.421,0.756 1.142,1.093 1.995,1.093 l 0.42,0 0,-2.102 c -0.3,0.168 -0.589,0.204 -0.925,0.204 -1.213,0 -1.514,-0.805 -1.514,-1.863 l 0,-2.486 -2.186,0 0,6.163 2.186,0 0,-1.009 z"
               style="fill:#ffffff;fill-opacity:1;fill-rule:nonzero;stroke:none"
               id="path3661"
               inkscape:connector-curvature="0" /><path
               d="m 351.358,76.978 2.271,2.223 2.991,0 -3.087,-2.847 3.28,-3.316 -3.064,0 -2.391,2.511 0,-2.511 -2.186,0 0,9.971 2.186,0 0,-6.031 z"
               style="fill:#ffffff;fill-opacity:1;fill-rule:nonzero;stroke:none"
               id="path3663"
               inkscape:connector-curvature="0" /></g></g></g></g></g></svg>