<?xml version="1.0" encoding="UTF-8" standalone="no"?>
<svg
   xmlns:dc="http://purl.org/dc/elements/1.1/"
   xmlns:cc="http://creativecommons.org/ns#"
   xmlns:rdf="http://www.w3.org/1999/02/22-rdf-syntax-ns#"
   xmlns:svg="http://www.w3.org/2000/svg"
   xmlns="http://www.w3.org/2000/svg"
   id="svg385"
   version="1.1"
   viewBox="0 0 210 297"
   height="297mm"
   width="210mm">
  <defs
     id="defs379" />
  <metadata
     id="metadata382">
    <rdf:RDF>
      <cc:Work
         rdf:about="">
        <dc:format>image/svg+xml</dc:format>
        <dc:type
           rdf:resource="http://purl.org/dc/dcmitype/StillImage" />
        <dc:title></dc:title>
      </cc:Work>
    </rdf:RDF>
  </metadata>
  <g
     id="layer1">
    <path
       style="fill:#8a1b3f;stroke-width:0.22834481"
       d="m 164.91864,75.576 c 0.0762,-0.19866 0.13861,-1.48879 0.13861,-2.86697 v -2.50577 l 1.11362,-0.4628 c 1.59609,-0.6633 1.70951,-1.01034 1.80931,-5.53633 l 0.085,-3.85517 -0.53351,0.12369 c -0.29343,0.068 -1.18232,0.39672 -1.97531,0.73042 -1.95278,0.82175 -4.12592,1.25305 -6.33757,1.25781 -2.5079,0.005 -3.95027,-0.45379 -4.96967,-1.58215 -1.82475,-2.01979 -2.01386,-4.34739 -1.93035,-23.760158 l 0.0653,-15.184931 h 4.90941 4.90942 l 0.11417,16.336866 c 0.10556,15.104703 0.14453,16.383183 0.51666,16.950983 0.22137,0.33776 0.65876,0.67842 0.97197,0.75703 0.6939,0.17416 2.04023,-0.0595 2.89763,-0.50286 l 0.63434,-0.32803 0.0586,-16.606998 0.0586,-16.606991 h 4.90941 4.90941 l 0.0582,23.395564 c 0.0504,20.279585 0.0121,23.575335 -0.28762,24.745315 -0.62011,2.42055 -2.31854,3.97303 -5.31753,4.86061 -0.96803,0.28649 -1.6573,0.53927 -1.53171,0.56172 0.58269,0.10415 -2.01821,0.40829 -3.62086,0.42342 -1.54624,0.0146 -1.77495,-0.033 -1.6555,-0.34427 z M 58.306048,62.81187 c -3.988848,-0.74066 -6.11649,-2.29874 -6.968216,-5.10286 -0.456014,-1.50132 -0.46762,-1.95783 -0.396066,-15.578352 0.06008,-11.436376 0.134011,-14.200647 0.39971,-14.945086 0.188399,-0.527853 0.913366,-1.506173 1.717574,-2.31781 1.177496,-1.188374 1.629199,-1.477826 2.936208,-1.881519 2.309126,-0.713217 4.047638,-0.934936 7.334376,-0.935382 3.342783,-4.56e-4 4.996762,0.213843 7.284869,0.943853 1.280398,0.408505 1.823363,0.744695 2.892827,1.791167 2.22486,2.177024 2.152924,1.578025 2.152924,17.927139 0,16.01305 0.06512,15.44009 -2.003463,17.62731 -1.281891,1.35542 -2.643911,1.97961 -5.417743,2.48289 -2.149718,0.39004 -7.806096,0.38358 -9.933,-0.0114 z m 5.944537,-6.10064 c 0.329956,-0.15034 0.797189,-0.66002 1.038296,-1.13263 0.415971,-0.81537 0.438374,-1.47871 0.438374,-12.979753 0,-11.63568 -0.01811,-12.155974 -0.452861,-13.008148 -0.464665,-0.910819 -1.02208,-1.228732 -2.100637,-1.198066 -0.887284,0.02523 -1.495465,0.415672 -1.953949,1.254415 -0.369421,0.675811 -0.401967,1.715259 -0.401967,12.837627 0,13.277085 -0.0033,13.242995 1.351872,14.069355 0.820076,0.50009 1.256036,0.53302 2.080872,0.1572 z m 22.82691,6.10064 c -3.959449,-0.7352 -6.103084,-2.29285 -6.9561,-5.0546 -0.44575,-1.44317 -0.465107,-2.06928 -0.465107,-15.04425 0,-13.09071 0.01582,-13.590177 0.478186,-15.103792 0.403632,-1.321323 0.684366,-1.767397 1.800627,-2.861117 1.423908,-1.395152 2.80426,-1.983825 5.786865,-2.467902 1.79668,-0.291601 6.93044,-0.296942 8.71767,-0.0091 4.007624,0.645518 6.428864,2.187561 7.466384,4.755208 0.52533,1.300103 0.52572,1.309788 0.59219,14.887466 0.0797,16.268977 0.0903,16.168487 -1.94822,18.305697 -1.41806,1.48669 -2.697514,2.08807 -5.539494,2.60371 -2.14972,0.39004 -7.8061,0.38358 -9.933001,-0.0113 z m 5.944541,-6.10064 c 0.32995,-0.15034 0.79718,-0.66002 1.03829,-1.13263 0.41597,-0.81537 0.43838,-1.47871 0.43838,-12.979753 0,-11.63568 -0.0181,-12.155974 -0.45287,-13.008148 -0.46466,-0.910819 -1.02208,-1.228732 -2.10063,-1.198066 -0.88729,0.02523 -1.49547,0.415672 -1.95395,1.254415 -0.36942,0.675811 -0.40197,1.715259 -0.40197,12.837627 0,13.277085 -0.003,13.242995 1.35187,14.069355 0.82008,0.50009 1.25604,0.53302 2.08088,0.1572 z M 1.7903827,35.808281 c 3.06e-4,-25.144478 0.02137,-26.5398556 0.399926,-26.4942326 0.776491,0.09358 4.619634,-0.332535 4.515709,-0.500689 -0.155629,-0.251813 3.5186883,-0.466234 7.9893793,-0.466234 4.035786,0 6.116754,0.160593 5.93303,0.457865 -0.05741,0.09289 0.227536,0.223914 0.633209,0.29117 2.792811,0.463017 5.463845,2.4257786 6.377217,4.6861866 0.511776,1.266538 0.525679,1.500269 0.525679,8.836329 0,7.345994 -0.01327,7.568239 -0.528118,8.842845 -0.337838,0.836388 -0.852039,1.584731 -1.427155,2.077008 -0.494469,0.423249 -0.899037,0.845917 -0.899037,0.939262 0,0.09335 0.456845,0.613725 1.01521,1.156393 1.762454,1.712911 1.8391,2.222046 1.8391,12.216594 0,9.962822 -0.03053,10.170122 -1.750945,11.890542 -0.904084,0.90408 -1.449937,1.22006 -2.988582,1.73 -1.860172,0.6165 -1.964977,0.62475 -8.846989,0.69633 -3.830484,0.0398 -8.2747913,0.0973 -9.8762363,0.12773 l -2.91172,0.0553 z M 16.945681,55.69697 c 0.43161,-0.20582 0.897494,-0.62167 1.035299,-0.92412 0.163441,-0.35872 0.250553,-2.85244 0.250553,-7.1725 0,-7.289767 -0.05699,-7.633483 -1.379034,-8.317138 -0.508802,-0.263113 -1.231157,-0.337923 -2.793359,-0.289297 l -2.107089,0.06559 -0.06003,8.219317 c -0.03302,4.520628 -0.01055,8.348258 0.04992,8.505848 0.172653,0.44992 4.017652,0.38254 5.003742,-0.0877 z M 16.754863,32.278333 c 0.329957,-0.150338 0.79719,-0.660022 1.038296,-1.132628 0.402444,-0.788855 0.438374,-1.402151 0.438374,-7.482634 0,-7.430182 -0.07691,-7.862678 -1.520625,-8.551137 -0.872402,-0.41602 -3.357253,-0.502065 -4.287303,-0.148461 l -0.585727,0.222693 v 8.530525 c 0,4.691788 0.0685,8.599029 0.15223,8.682754 0.263531,0.26353 4.136625,0.165084 4.764755,-0.121112 z M 201.47824,62.24351 196.683,62.12233 196.56883,46.024019 c -0.12065,-17.011281 -0.10633,-16.800082 -1.17738,-17.373291 -0.54541,-0.291889 -1.89166,-0.135846 -3.06783,0.355589 l -0.77535,0.323962 -0.0586,16.396024 -0.0586,16.396027 h -4.79524 -4.79524 V 42.486298 22.850268 l 3.99603,-0.400299 c 2.19782,-0.220165 4.10501,-0.360036 4.2382,-0.310824 0.13319,0.04921 0.36723,0.506878 0.52007,1.017037 0.35762,1.193624 0.56982,1.303855 1.4683,0.762716 1.57048,-0.945885 5.36393,-1.865453 7.71158,-1.869359 1.80537,-0.003 3.66669,0.615884 4.60637,1.531615 0.80396,0.783477 1.54983,2.379349 1.54983,3.316054 0,0.236219 0.0888,0.374639 0.19722,0.3076 0.10847,-0.06704 0.26171,0.414984 0.34053,1.071162 0.2048,1.704916 0.18198,34.19902 -0.024,34.1388 -0.0942,-0.0275 -2.32911,-0.1046 -4.9665,-0.17126 z M 32.039142,61.95572 c -0.06086,-0.15954 -0.08413,-9.02354 -0.0517,-19.697778 l 0.05896,-19.407696 3.996035,-0.400289 c 2.197818,-0.220158 4.115835,-0.35587 4.262259,-0.30158 0.146421,0.05429 0.387019,0.680585 0.534662,1.391768 0.315338,1.518973 0.243729,1.513722 3.131978,0.229663 1.032769,-0.459149 2.522719,-0.967081 3.311,-1.128739 l 1.433238,-0.293922 0.05819,0.706626 c 0.032,0.388645 -0.07075,2.093822 -0.228345,3.789282 l -0.286532,3.082655 -2.926497,0.152623 c -1.609573,0.08394 -3.073128,0.208891 -3.252347,0.277663 -0.277112,0.106338 -0.334625,2.491418 -0.384503,15.945686 l -0.05865,15.820648 -4.743537,0.0617 c -3.67065,0.0478 -4.768566,-0.004 -4.854198,-0.22835 z m 76.495628,-9e-5 c -0.0608,-0.1595 -0.084,-11.59306 -0.0517,-25.40792 l 0.0588,-25.11793 4.26551,-1.246446 c 2.34602,-0.6855446 4.22246,-1.3160826 4.16985,-1.4011936 -0.0999,-0.161611 0.67849,-0.426487 1.2693,-0.43194 0.30174,-0.0028 0.33516,1.8502926 0.28074,15.5653046 -0.0371,9.357824 0.0227,15.652992 0.1501,15.780351 0.34136,0.341355 0.53861,-0.217711 2.8833,-8.171732 1.22171,-4.144459 2.30909,-7.766578 2.4164,-8.049155 0.19394,-0.510677 0.22453,-0.513776 5.07213,-0.513776 2.68235,0 4.93518,0.05818 5.00629,0.129286 0.0711,0.07111 -1.15048,3.950116 -2.71464,8.620017 -1.56416,4.669903 -2.84543,8.798996 -2.84728,9.175765 -0.002,0.376769 1.44193,5.206262 3.20839,10.732209 1.76646,5.52594 3.21219,10.17561 3.21274,10.3326 6.9e-4,0.22008 -1.19839,0.28543 -5.23745,0.28543 -2.88115,0 -5.28907,-0.0819 -5.35093,-0.18198 -0.0619,-0.10009 -1.2019,-4.49287 -2.53342,-9.76174 -2.57191,-10.177104 -2.7572,-10.802784 -3.09818,-10.461809 -0.12603,0.126031 -0.2396,4.368232 -0.2745,10.253169 l -0.0595,10.03819 -4.85775,0.0616 c -3.76217,0.0477 -4.88265,-0.004 -4.96821,-0.22835 z m 29.22817,9e-5 c -0.0608,-0.15954 -0.084,-11.58641 -0.0517,-25.393038 l 0.0588,-25.102956 4.28859,-1.282772 c 2.35873,-0.7055236 4.22666,-1.3447036 4.15097,-1.4203986 -0.0757,-0.07569 0.18533,-0.20856 0.58006,-0.295258 0.39473,-0.0867 0.73603,-0.122164 0.75845,-0.07881 0.0224,0.04335 -0.0106,12.1525466 -0.0734,26.9093306 l -0.11417,26.830512 -4.74353,0.0617 c -3.67072,0.0478 -4.76854,-0.004 -4.85405,-0.22834 z"
       id="path430" />
	   
	   <path
       style="color:#000000;font-style:normal;font-variant:normal;font-weight:normal;font-stretch:normal;font-size:medium;line-height:normal;font-family:sans-serif;font-variant-ligatures:normal;font-variant-position:normal;font-variant-caps:normal;font-variant-numeric:normal;font-variant-alternates:normal;font-feature-settings:normal;text-indent:0;text-align:start;text-decoration:none;text-decoration-line:none;text-decoration-style:solid;text-decoration-color:#000000;letter-spacing:normal;word-spacing:normal;text-transform:none;writing-mode:lr-tb;direction:ltr;text-orientation:mixed;dominant-baseline:auto;baseline-shift:baseline;text-anchor:start;white-space:normal;shape-padding:0;clip-rule:nonzero;display:inline;overflow:visible;visibility:visible;opacity:1;isolation:auto;mix-blend-mode:normal;color-interpolation:sRGB;color-interpolation-filters:linearRGB;solid-color:#000000;solid-opacity:1;vector-effect:none;fill-opacity:1;fill-rule:nonzero;stroke:none;stroke-width:0.22834481;stroke-linecap:butt;stroke-linejoin:miter;stroke-miterlimit:4;stroke-dasharray:none;stroke-dashoffset:0;stroke-opacity:1;color-rendering:auto;image-rendering:auto;shape-rendering:auto;text-rendering:auto;enable-background:accumulate"
       d="m 15.830078,6.34375 c -2.237171,0 -4.274978,0.053392 -5.736328,0.1386719 -0.7306749,0.04264 -1.3163338,0.092065 -1.7148438,0.1484375 -0.1992549,0.028186 -0.3520587,0.057825 -0.4589843,0.091797 -0.053463,0.016986 -0.095679,0.03196 -0.1367188,0.064453 -0.02052,0.016247 -0.042185,0.03954 -0.054687,0.078125 -4.046e-4,0.00125 3.602e-4,0.00263 0,0.00391 -0.015122,0.00591 -0.024979,0.00966 -0.052734,0.017578 C 7.5869471,6.9120534 7.4444677,6.9419444 7.267579,6.9726594 6.9138008,7.0340882 6.4212125,7.100456 5.9003906,7.1582031 5.3795688,7.2159503 4.8306459,7.2656601 4.3652344,7.2949219 3.8998228,7.3241836 3.510687,7.3313717 3.3378906,7.3105469 3.2970396,7.3056236 3.2414477,7.3112897 3.1953125,7.3417969 3.1491773,7.3723041 3.1174855,7.4191955 3.09375,7.4726562 3.0462789,7.5795777 3.0163816,7.73283 2.9882812,7.9960938 2.9320806,8.5226213 2.8954681,9.4785208 2.8691406,11.222656 2.8164856,14.710927 2.8106999,21.345698 2.8105469,33.917969 v 26.660156 l 3.0273437,-0.05859 c 1.6001649,-0.03041 6.0447414,-0.08716 9.8750004,-0.126953 3.441045,-0.03579 5.187558,-0.05584 6.314453,-0.144531 1.126894,-0.0887 1.63781,-0.25019 2.568359,-0.558594 1.54436,-0.511834 2.122277,-0.84689 3.033203,-1.757812 0.86159,-0.861593 1.327418,-1.387863 1.552735,-2.917969 0.225316,-1.530106 0.230468,-4.071207 0.230468,-9.052734 0,-4.997566 -0.01768,-7.62235 -0.259765,-9.230469 -0.242088,-1.60812 -0.728593,-2.20854 -1.613282,-3.06836 -0.277262,-0.269468 -0.529702,-0.533796 -0.710937,-0.740234 -0.09062,-0.103219 -0.162746,-0.192012 -0.210937,-0.257813 -0.0234,-0.03195 -0.04072,-0.05848 -0.05078,-0.07617 0.0083,-0.01399 0.02025,-0.03217 0.03906,-0.05664 0.04148,-0.05394 0.105873,-0.127699 0.185547,-0.210938 0.159346,-0.166476 0.382295,-0.374565 0.626953,-0.583984 0.593001,-0.507586 1.114936,-1.269331 1.458984,-2.121094 0.25816,-0.639123 0.396733,-1.041176 0.464844,-2.18164 0.06811,-1.140465 0.07031,-3.032013 0.07031,-6.705078 0,-3.668102 -0.0024,-5.560129 -0.07031,-6.701172 -0.06788,-1.14105 -0.206222,-1.542543 -0.46289,-2.177741 -0.933737,-2.3108087 -3.632259,-4.2862481 -6.464844,-4.755859 -0.195289,-0.032377 -0.361,-0.080999 -0.460937,-0.1269531 -0.0479,-0.022026 -0.07717,-0.044321 -0.08594,-0.052734 0.007,-0.031324 0.02233,-0.06152 0.01172,-0.091797 -0.01761,-0.05025 -0.05252,-0.080862 -0.08789,-0.1054687 C 21.720285,6.6675842 21.63033,6.6374092 21.507811,6.6074222 21.262776,6.5474484 20.890525,6.4998174 20.386719,6.4609375 19.379105,6.3831777 17.849486,6.34375 15.830078,6.34375 Z M 119.37891,6.3457 c -0.31201,0.00288 -0.66139,0.072762 -0.92969,0.1640625 -0.13415,0.04565 -0.24597,0.095503 -0.33008,0.1542969 -0.0421,0.029397 -0.0787,0.060153 -0.10547,0.1074219 -0.009,0.016264 0.004,0.040948 0,0.0625 -0.006,0.00375 -0.009,0.00609 -0.0234,0.013672 -0.0438,0.023028 -0.11998,0.057503 -0.2207,0.097656 -0.20144,0.080306 -0.50407,0.1878402 -0.88086,0.3144531 -0.75358,0.2532259 -1.80668,0.5814001 -2.97851,0.9238282 l -4.34766,1.2714843 -0.0606,25.2031251 c -0.0161,6.907568 -0.0172,13.218784 -0.008,17.824219 0.005,2.302717 0.0113,4.179642 0.0215,5.490234 0.005,0.655296 0.0112,1.167808 0.0176,1.523438 0.003,0.177815 0.006,0.316855 0.01,0.414062 0.002,0.0486 0.004,0.08632 0.006,0.115235 9.9e-4,0.01446 0.003,0.02608 0.004,0.03711 7.7e-4,0.0065 0.004,0.01742 0.006,0.02539 0.001,0.0055 -5.9e-4,0.0058 0.004,0.01758 0.0252,0.06612 0.0781,0.10879 0.13867,0.138672 0.0605,0.02988 0.13491,0.05134 0.22852,0.07031 0.1872,0.03795 0.45655,0.0644 0.83984,0.08203 0.76658,0.03526 1.98739,0.03558 3.86914,0.01172 l 4.96875,-0.0625 0.0605,-10.150391 c 0.0174,-2.941896 0.055,-5.472568 0.10351,-7.283203 0.0242,-0.905317 0.0513,-1.631467 0.0801,-2.136718 0.0144,-0.252626 0.0301,-0.450038 0.0449,-0.585938 0.007,-0.06795 0.0148,-0.12054 0.0215,-0.154297 0.003,-0.01311 0.004,-0.02117 0.006,-0.02734 0.009,-0.0063 0.027,-0.01877 0.0195,-0.01953 -0.0127,-0.0013 0.01,-1.04e-4 0.0547,0.07227 0.09,0.144741 0.22917,0.508925 0.43359,1.199219 0.40885,1.380587 1.09883,4.083415 2.38477,9.171875 0.66581,2.634631 1.28292,5.048694 1.74218,6.818359 0.22964,0.884833 0.42011,1.608404 0.55664,2.117188 0.0683,0.254391 0.12409,0.454743 0.16407,0.595703 0.02,0.07048 0.0362,0.127403 0.0488,0.167968 0.006,0.02028 0.0108,0.03706 0.0156,0.05078 0.005,0.01372 0.003,0.01679 0.0195,0.04297 0.0232,0.03761 0.0447,0.04514 0.0605,0.05273 0.0159,0.0076 0.0301,0.01147 0.0449,0.01563 0.0296,0.0083 0.0622,0.01518 0.10352,0.02148 0.0826,0.01261 0.19468,0.02416 0.33593,0.03516 0.2825,0.02199 0.68013,0.04207 1.16602,0.05859 0.97177,0.03305 2.29467,0.05273 3.73633,0.05273 2.02014,0 3.33087,-0.01642 4.14062,-0.06055 0.40488,-0.02206 0.68367,-0.05023 0.8711,-0.08984 0.0937,-0.01981 0.16394,-0.04118 0.22265,-0.07422 0.0587,-0.03304 0.11744,-0.09643 0.11719,-0.175781 -9e-5,-0.02656 -0.003,-0.03462 -0.006,-0.05078 -0.003,-0.01617 -0.008,-0.03369 -0.0137,-0.05664 -0.0115,-0.0459 -0.0291,-0.108487 -0.0508,-0.185547 -0.0434,-0.15412 -0.10579,-0.370077 -0.1875,-0.642578 -0.16342,-0.545002 -0.40019,-1.313395 -0.69141,-2.25 -0.58244,-1.873211 -1.38427,-4.418429 -2.26758,-7.181641 -0.88304,-2.762379 -1.68633,-5.350694 -2.26758,-7.294921 -0.29062,-0.972114 -0.5252,-1.782394 -0.6875,-2.373047 -0.0811,-0.295327 -0.14527,-0.536148 -0.1875,-0.712891 -0.0422,-0.176743 -0.0606,-0.306419 -0.0605,-0.316406 7e-5,-0.01525 0.017,-0.127494 0.0547,-0.283203 0.0377,-0.15571 0.0938,-0.365385 0.16601,-0.621094 0.14436,-0.511419 0.35347,-1.208082 0.61133,-2.039063 0.51571,-1.66196 1.22792,-3.861068 2.00976,-6.195312 0.78227,-2.33549 1.47837,-4.473743 1.97071,-6.03711 0.24617,-0.781683 0.44087,-1.418925 0.57031,-1.867187 0.0647,-0.224131 0.11219,-0.400357 0.14258,-0.525391 0.0152,-0.06252 0.0269,-0.113359 0.0332,-0.152343 0.003,-0.01949 0.005,-0.03614 0.006,-0.05469 2.7e-4,-0.0093 4e-4,-0.01882 -0.002,-0.0332 -0.001,-0.0072 -0.003,-0.01419 -0.008,-0.02539 -0.002,-0.0056 -0.01,-0.01914 -0.01,-0.01953 -2.4e-4,-3.94e-4 -0.0173,-0.02316 -0.0176,-0.02344 -5.5e-4,-5.56e-4 -0.012,-0.01186 -0.0176,-0.01563 -0.006,-0.0038 -0.0112,-0.0055 -0.0156,-0.0078 -0.009,-0.0045 -0.0166,-0.0074 -0.0234,-0.0098 -0.0137,-0.0047 -0.0256,-0.007 -0.0391,-0.0098 -0.0269,-0.0055 -0.0589,-0.01121 -0.0977,-0.01563 -0.0775,-0.0088 -0.18176,-0.01564 -0.31445,-0.02344 -0.26539,-0.01559 -0.63933,-0.02928 -1.09375,-0.04102 -0.90884,-0.02347 -2.14238,-0.03906 -3.48438,-0.03906 -2.42382,0 -3.6407,3.36e-4 -4.29297,0.06641 -0.32613,0.03304 -0.51613,0.08045 -0.65039,0.171874 -0.13425,0.09142 -0.1875,0.221045 -0.23632,0.34961 -0.0329,0.0865 -0.11768,0.356346 -0.25391,0.800781 -0.13623,0.444435 -0.32004,1.05362 -0.53906,1.783203 -0.43805,1.459167 -1.0141,3.400268 -1.625,5.472656 -1.17231,3.976874 -1.80872,6.106809 -2.19141,7.191407 -0.19134,0.542298 -0.32751,0.827042 -0.4082,0.927734 -0.0403,0.05035 -0.0501,0.0447 -0.0449,0.04492 0.003,1.5e-4 -0.0169,-0.01514 -0.0332,-0.02734 -0.002,-0.0105 -0.005,-0.02298 -0.008,-0.04297 -0.007,-0.05084 -0.0127,-0.128567 -0.0195,-0.228515 -0.0136,-0.199896 -0.0257,-0.490791 -0.0371,-0.867188 -0.0229,-0.752793 -0.0416,-1.843371 -0.0547,-3.222656 -0.0262,-2.75857 -0.0322,-6.672995 -0.0137,-11.351562 0.0272,-6.85762 0.0315,-10.747799 -0.008,-12.927735 -0.0197,-1.089968 -0.05,-1.7520736 -0.0957,-2.1484374 -0.0229,-0.198182 -0.0474,-0.3285922 -0.084,-0.4238282 -0.0183,-0.047618 -0.0402,-0.089136 -0.0742,-0.1230468 -0.034,-0.033911 -0.0867,-0.057087 -0.13476,-0.056641 z m 29.23437,0.013672 c -0.0506,-0.00173 -0.11175,0.0023 -0.18359,0.00977 -0.14369,0.014931 -0.33034,0.045714 -0.53125,0.089844 -0.20415,0.044839 -0.37242,0.101145 -0.49219,0.1621094 -0.0599,0.030482 -0.10923,0.059466 -0.14844,0.1074218 -0.0188,0.023008 -0.0352,0.054291 -0.0391,0.095703 -0.0419,0.022032 -0.1088,0.05357 -0.20313,0.091797 -0.19754,0.080057 -0.496,0.1880549 -0.87109,0.3164063 -0.75018,0.2567027 -1.80615,0.5928917 -2.98437,0.9453125 l -4.3711,1.3066406 -0.0586,25.1875004 c -0.0162,6.903452 -0.0172,13.211715 -0.008,17.814453 0.005,2.301369 0.0113,4.176486 0.0215,5.486328 0.005,0.654921 0.0112,1.169956 0.0176,1.525391 0.003,0.177717 0.006,0.31495 0.01,0.412109 0.002,0.04858 0.004,0.08633 0.006,0.115235 9.9e-4,0.01445 0.003,0.02608 0.004,0.03711 0.001,0.01103 -0.001,0.01608 0.01,0.04492 l 0.0781,0.205078 0.0508,-0.07617 c 0.003,0.0018 0.004,0.0061 0.008,0.0078 0.0598,0.03003 0.1327,0.05129 0.22461,0.07031 0.18383,0.03804 0.44747,0.06439 0.82227,0.08203 0.7496,0.03528 1.9413,0.03563 3.77734,0.01172 l 4.85547,-0.0625 0.11524,-26.943359 c 0.0314,-7.37844 0.0551,-14.095252 0.0684,-18.972656 0.007,-2.438703 0.0108,-4.417008 0.0117,-5.7890634 4.7e-4,-0.6860277 0.001,-1.2196231 0,-1.5839844 -5.6e-4,-0.1821806 -0.003,-0.3227548 -0.004,-0.4179687 -4.9e-4,-0.047607 6.2e-4,-0.083723 0,-0.109375 -3.1e-4,-0.012826 -0.002,-0.022891 -0.002,-0.03125 -2.1e-4,-0.00418 4.4e-4,-0.00889 0,-0.013672 -2.3e-4,-0.00239 -0.001,-0.00316 -0.002,-0.00781 -7.4e-4,-0.00466 -0.0116,-0.03694 -0.0117,-0.037109 -0.0314,-0.060733 -0.0725,-0.064121 -0.0976,-0.070312 -0.0252,-0.00619 -0.047,-0.0089 -0.0723,-0.00977 z M 15.830078,6.5722656 c 2.016379,0 3.543177,0.040333 4.539063,0.1171875 0.497943,0.038427 0.864393,0.084926 1.083984,0.1386719 0.108883,0.026649 0.180779,0.059595 0.205078,0.076172 -0.0061,0.025682 -0.01752,0.050536 -0.01172,0.074219 0.0096,0.039268 0.02931,0.067151 0.05078,0.089844 0.04295,0.045386 0.09536,0.075671 0.160156,0.1054687 0.129602,0.059595 0.309148,0.1096521 0.519531,0.1445313 2.753038,0.456423 5.396056,2.4071804 6.289063,4.617188 0.255108,0.63134 0.380251,0.978997 0.447265,2.105469 0.06701,1.126471 0.07031,3.019542 0.07031,6.6875 0,3.672928 -0.0031,5.565598 -0.07031,6.691406 -0.06724,1.125808 -0.19253,1.473893 -0.449219,2.109375 -0.331627,0.821014 -0.8373,1.556235 -1.394531,2.033203 -0.249811,0.213831 -0.477977,0.425603 -0.644531,0.599609 -0.08328,0.087 -0.151348,0.165682 -0.201172,0.230469 -0.02491,0.03239 -0.04431,0.06106 -0.06055,0.08984 -0.01624,0.02878 -0.0332,0.05256 -0.0332,0.105469 0,0.05823 0.01789,0.07859 0.03516,0.109375 0.01726,0.03078 0.03895,0.06407 0.06641,0.101562 0.05492,0.07498 0.13122,0.167061 0.224609,0.273438 0.186779,0.212753 0.441554,0.480706 0.722656,0.753906 0.877766,0.853092 1.31198,1.364187 1.548828,2.9375 0.236849,1.573312 0.25586,4.200283 0.25586,9.197266 0,4.981294 -0.0085,7.525176 -0.228516,9.019531 -0.220052,1.494354 -0.629456,1.932188 -1.488281,2.791015 -0.897242,0.897238 -1.410429,1.193126 -2.943359,1.701172 -0.929623,0.308097 -1.402619,0.459426 -2.513672,0.546875 -1.111054,0.08745 -2.857862,0.108742 -6.298828,0.144531 -3.830709,0.0398 -8.2742285,0.0965 -9.8769536,0.126954 L 3.0390625,60.34375 V 33.917969 c 1.53e-4,-12.572207 0.00405,-19.207274 0.056641,-22.691407 0.026296,-1.7420656 0.064913,-2.6970382 0.1191407,-3.2050776 0.027114,-0.2540197 0.061751,-0.3981548 0.087891,-0.4570313 0.01148,-0.025857 0.016678,-0.027979 0.015625,-0.027344 0.2162994,0.025241 0.5936673,0.015682 1.0605468,-0.013672 0.4703183,-0.02957 1.0228404,-0.080569 1.546875,-0.1386719 0.5240347,-0.058103 1.019011,-0.1227133 1.3808594,-0.1855468 0.1809243,-0.031417 0.3271625,-0.062005 0.4316406,-0.091797 0.052239,-0.014896 0.093082,-0.028236 0.1308594,-0.048828 0.018889,-0.010296 0.038591,-0.021136 0.060547,-0.050781 0.00652,-0.00881 -0.00189,-0.028378 0.00195,-0.042969 0.00237,-0.00101 0.021341,-0.013555 0.058594,-0.025391 0.081689,-0.025953 0.2267404,-0.054704 0.4199218,-0.082031 0.3863629,-0.054654 0.9680255,-0.1059954 1.6953128,-0.1484375 1.454574,-0.084884 3.491089,-0.1367188 5.724609,-0.1367188 z m 103.529302,0.00586 c 0.004,0.0056 0.008,0.00887 0.0156,0.029297 0.0227,0.059143 0.0485,0.1796917 0.0703,0.3691406 0.0437,0.3788978 0.0761,1.0376682 0.0957,2.125 0.0392,2.1746638 0.0331,6.0664358 0.006,12.9238288 -0.0186,4.679256 -0.0126,8.593206 0.0137,11.353515 0.0131,1.380155 0.0317,2.47076 0.0547,3.226563 0.0115,0.377901 0.0232,0.671651 0.0371,0.876953 0.007,0.102651 0.0154,0.184203 0.0234,0.24414 0.004,0.02997 0.008,0.05366 0.0137,0.07617 0.005,0.02251 -0.004,0.03884 0.041,0.08398 0.0501,0.05012 0.11074,0.101552 0.20117,0.105469 0.0904,0.0039 0.17159,-0.05056 0.23438,-0.128907 0.12557,-0.156689 0.24963,-0.445089 0.44336,-0.99414 0.38745,-1.098103 1.02292,-3.225978 2.19531,-7.203125 0.61081,-2.072071 1.1871,-4.014005 1.625,-5.472657 0.21895,-0.729325 0.40305,-1.337548 0.53906,-1.78125 0.13601,-0.443701 0.22724,-0.732318 0.24805,-0.787109 0.0481,-0.126774 0.0729,-0.1894 0.15039,-0.242188 0.0775,-0.05279 0.23517,-0.101238 0.54687,-0.132812 0.62342,-0.06315 1.84576,-0.06445 4.26953,-0.06445 1.34035,0 2.57258,0.01371 3.47852,0.03711 0.45297,0.0117 0.8251,0.0257 1.08594,0.04102 0.13042,0.0077 0.23292,0.01548 0.30273,0.02344 0.006,6.96e-4 0.008,0.0013 0.0137,0.002 -0.005,0.02566 -0.008,0.04635 -0.0176,0.08398 -0.0289,0.118952 -0.0764,0.293132 -0.14063,0.515625 -0.12849,0.444986 -0.32445,1.082586 -0.57031,1.863281 -0.49172,1.56139 -1.18685,3.698792 -1.96875,6.033203 -0.78232,2.335659 -1.4953,4.534965 -2.01172,6.199219 -0.25821,0.832127 -0.46605,1.530235 -0.61133,2.044922 -0.0726,0.257344 -0.12913,0.468448 -0.16797,0.628906 -0.0388,0.160458 -0.0621,0.258952 -0.0625,0.337891 -4.5e-4,0.0842 0.0251,0.188068 0.0684,0.36914 0.0433,0.181072 0.10596,0.423939 0.1875,0.720704 0.16308,0.593529 0.39854,1.405807 0.68945,2.378906 0.58184,1.946198 1.38416,4.53526 2.26758,7.298828 0.88316,2.762728 1.68736,5.305378 2.26953,7.177734 0.29109,0.936179 0.52644,1.704397 0.68946,2.248047 0.0815,0.271825 0.14479,0.488832 0.1875,0.640625 0.0213,0.0759 0.0382,0.13558 0.0488,0.177734 0.003,0.01346 0.004,0.02171 0.006,0.03125 -0.0239,0.01269 -0.0737,0.0322 -0.15234,0.04883 -0.16342,0.03454 -0.43625,0.0622 -0.83594,0.08398 -0.79938,0.04357 -2.10999,0.06055 -4.1289,0.06055 -1.4395,0 -2.76058,-0.01982 -3.72852,-0.05273 -0.48397,-0.01646 -0.87983,-0.03708 -1.15625,-0.05859 -0.13821,-0.01076 -0.24614,-0.02218 -0.31836,-0.0332 -0.027,-0.0041 -0.0434,-0.0063 -0.0586,-0.0098 -0.002,-0.0055 -0.002,-0.009 -0.004,-0.01563 -0.0116,-0.03735 -0.0272,-0.09065 -0.0469,-0.160156 -0.0394,-0.13901 -0.094,-0.339918 -0.16211,-0.59375 -0.13624,-0.507666 -0.3271,-1.230752 -0.55664,-2.115235 -0.45909,-1.768965 -1.07648,-4.184121 -1.74219,-6.818359 -1.28598,-5.088645 -1.9747,-7.788402 -2.38672,-9.179688 -0.20601,-0.695642 -0.33795,-1.059196 -0.45898,-1.253906 -0.0605,-0.09736 -0.12839,-0.169683 -0.22657,-0.179687 -0.0982,-0.01 -0.16617,0.04899 -0.21679,0.09961 -0.0315,0.03149 -0.0328,0.04927 -0.0391,0.06836 -0.006,0.01909 -0.0112,0.03799 -0.0156,0.06055 -0.009,0.0451 -0.0176,0.102225 -0.0254,0.173828 -0.0156,0.143207 -0.0304,0.342901 -0.0449,0.597657 -0.029,0.509512 -0.0558,1.235974 -0.0801,2.142578 -0.0485,1.813208 -0.0861,4.346022 -0.10352,7.289062 l -0.0586,9.925782 -4.74609,0.06055 c -1.88042,0.02384 -3.09988,0.02303 -3.85547,-0.01172 -0.3778,-0.01738 -0.64018,-0.04282 -0.80469,-0.07617 -0.0823,-0.01667 -0.14007,-0.03703 -0.17188,-0.05273 -0.0273,-0.01346 -0.0254,-0.01591 -0.0234,-0.01172 -4.8e-4,-0.0051 -10e-4,-0.0097 -0.002,-0.01758 -0.002,-0.02455 -0.004,-0.06015 -0.006,-0.107422 -0.003,-0.09454 -0.007,-0.233088 -0.01,-0.410156 -0.006,-0.354137 -0.0125,-0.866598 -0.0176,-1.521485 -0.0102,-1.309774 -0.0168,-3.185813 -0.0215,-5.488281 -0.009,-4.604935 -0.008,-10.916926 0.008,-17.824219 l 0.0586,-25.0332033 4.1836,-1.2226562 c 1.17419,-0.3431174 2.23224,-0.6710741 2.99023,-0.9257813 0.379,-0.1273536 0.68172,-0.2370319 0.89063,-0.3203125 0.10445,-0.04164 0.18429,-0.075046 0.24218,-0.1054688 0.029,-0.015212 0.0528,-0.029454 0.0762,-0.048828 0.0117,-0.00969 0.0251,-0.020112 0.0391,-0.044922 0.003,-0.0062 0.007,-0.012745 0.01,-0.021484 0.003,-0.00874 0.006,-0.030453 0.006,-0.03125 4e-5,-5.586e-4 -0.003,-0.013988 -0.006,-0.025391 0.003,-0.00377 0.008,-0.012662 0.0293,-0.027344 0.0522,-0.036493 0.15163,-0.083548 0.27344,-0.125 0.23751,-0.080825 0.56144,-0.1428632 0.83594,-0.1484375 z m 29.21289,0.011719 c 2.5e-4,0.017342 -2.4e-4,0.028127 0,0.050781 9.6e-4,0.094135 0.001,0.2341148 0.002,0.4160156 10e-4,0.3638017 4.6e-4,0.8981039 0,1.5839844 -9.3e-4,1.3717614 -0.005,3.3504484 -0.0117,5.7890634 -0.0133,4.877228 -0.037,11.594312 -0.0684,18.972656 l -0.11328,26.716797 -4.63086,0.06055 c -1.83467,0.02389 -3.02726,0.02303 -3.76562,-0.01172 -0.36919,-0.01738 -0.62439,-0.0429 -0.78516,-0.07617 -0.0804,-0.01664 -0.137,-0.03718 -0.16797,-0.05273 -0.0265,-0.01334 -0.0252,-0.01549 -0.0234,-0.01172 -4.7e-4,-0.0051 -0.001,-0.0097 -0.002,-0.01758 -0.002,-0.02454 -0.004,-0.06018 -0.006,-0.107422 -0.003,-0.0945 -0.007,-0.233186 -0.01,-0.410156 -0.006,-0.353942 -0.0125,-0.866973 -0.0176,-1.521485 -0.0102,-1.309023 -0.0168,-3.183256 -0.0215,-5.484375 -0.009,-4.602239 -0.008,-10.909324 0.008,-17.8125 l 0.0586,-25.0195315 4.20703,-1.2578125 c 1.18051,-0.3531037 2.2396,-0.6890735 2.99414,-0.9472656 0.37727,-0.1290961 0.6777,-0.2391398 0.88281,-0.3222657 0.10256,-0.041563 0.18039,-0.075325 0.23633,-0.1054687 0.028,-0.015072 0.0504,-0.027585 0.0742,-0.048828 0.0119,-0.010622 0.0261,-0.022359 0.0391,-0.054687 0.003,-0.00808 0.008,-0.028501 0.008,-0.029297 1e-4,-6.7e-4 1.5e-4,-0.022851 0,-0.03125 0.0116,-0.00903 0.0199,-0.017472 0.0508,-0.033203 0.0905,-0.046068 0.24692,-0.098766 0.4375,-0.140625 0.19381,-0.042571 0.37656,-0.0723 0.50781,-0.085938 0.0511,-0.00531 0.0851,-0.00739 0.11719,-0.00781 z M 118.01367,6.84375 c -0.004,0.038424 -0.0202,0.076656 0,0.109375 8.2e-4,0.00133 -0.0155,-0.066047 -0.0156,-0.064453 -6e-5,7.971e-4 0.003,-0.018376 0.006,-0.025391 0.002,-0.00701 0.005,-0.013231 0.008,-0.017578 0.001,-0.00198 9.6e-4,-3.531e-4 0.002,-0.00195 z M 7.9375,6.8632812 c 0.00882,0.014265 0.015266,0.049262 0.00781,0.072266 -0.00515,0.015896 -0.00964,0.017555 -0.013672,0.021484 0.00704,-0.033208 0.022307,-0.067137 0.00586,-0.09375 z m 139.29492,0.00391 c 0.008,0.029339 0.0131,0.061974 0.0312,0.080078 5.9e-4,5.914e-4 -0.0199,-0.02605 -0.0195,-0.025391 3.6e-4,6.599e-4 -0.0118,-0.033931 -0.0117,-0.033203 8e-5,5.005e-4 1.3e-4,-0.011757 0,-0.021484 z M 21.867188,6.921875 c 5.31e-4,0.00159 -5.17e-4,-1.559e-4 0,0.00195 0.0034,0.01406 -7.31e-4,0.039322 -0.0078,0.050781 0.0086,-0.0139 0.0031,-0.035019 0.0078,-0.052734 z m -6.140626,5.822266 c -0.855176,-0.02961 -1.709512,0.03276 -2.208984,0.222656 l -0.660156,0.25 v 8.609375 c 0,2.34645 0.01731,4.497522 0.04492,6.072266 0.0138,0.787371 0.03057,1.429827 0.04883,1.882812 0.0091,0.226493 0.01919,0.406372 0.0293,0.533203 0.0051,0.06341 0.0098,0.113309 0.01563,0.152344 0.0029,0.01952 0.0055,0.03612 0.0098,0.05273 0.0022,0.0083 0.0035,0.01689 0.0078,0.02734 0.0021,0.0052 0.0056,0.01049 0.0098,0.01758 0.0041,0.0071 0.01888,0.02474 0.01953,0.02539 0.04182,0.04182 0.08556,0.05794 0.136719,0.07422 0.05115,0.01628 0.110072,0.02946 0.179687,0.04102 0.139229,0.02311 0.31794,0.03896 0.525391,0.05078 0.4149,0.02364 0.946036,0.02745 1.488281,0.01367 0.542244,-0.01378 1.095188,-0.04409 1.554687,-0.08984 0.4595,-0.04575 0.812742,-0.09862 1.007813,-0.1875 0.38155,-0.173846 0.84061,-0.6874 1.09375,-1.183594 0.20604,-0.403872 0.323134,-0.784079 0.382812,-1.802735 0.05968,-1.018655 0.06836,-2.691955 0.06836,-5.732421 0,-3.715485 -0.01721,-5.679897 -0.220703,-6.824219 -0.101746,-0.572161 -0.253653,-0.945299 -0.480469,-1.21875 -0.226817,-0.273451 -0.52,-0.437384 -0.884766,-0.611328 -0.471454,-0.224822 -1.312792,-0.345387 -2.167969,-0.375 z m -0.0078,0.228515 c 0.837862,0.02901 1.675224,0.160364 2.076172,0.351563 0.357092,0.170285 0.614945,0.31927 0.808594,0.552734 0.193649,0.233464 0.331741,0.562488 0.429687,1.113281 0.195892,1.101586 0.21875,3.068506 0.21875,6.783204 0,3.040016 -0.0095,4.713422 -0.06836,5.71875 -0.0589,1.005327 -0.161018,1.325953 -0.357422,1.710937 -0.229072,0.449018 -0.706011,0.955201 -0.984375,1.082031 -0.118995,0.05422 -0.485898,0.121051 -0.9375,0.166016 -0.451602,0.04497 -0.999623,0.07618 -1.537109,0.08984 -0.537487,0.01366 -1.063699,0.0094 -1.46875,-0.01367 -0.202526,-0.01154 -0.376478,-0.028 -0.501954,-0.04883 -0.06274,-0.01041 -0.113599,-0.02211 -0.148437,-0.0332 -0.02212,-0.007 -0.02138,-0.0067 -0.02734,-0.0098 -1.41e-4,-9.17e-4 1.41e-4,-10e-4 0,-0.002 -0.0044,-0.02969 -0.0088,-0.07807 -0.01367,-0.138672 -0.0097,-0.121199 -0.01828,-0.29659 -0.02734,-0.521484 -0.01813,-0.449789 -0.03504,-1.092529 -0.04883,-1.878907 -0.02757,-1.572755 -0.04492,-3.723021 -0.04492,-6.068359 V 13.375 l 0.511718,-0.195312 c 0.430579,-0.163706 1.283232,-0.236045 2.121094,-0.207032 z m 137.685548,6.957032 -0.0664,15.298828 c -0.0418,9.706774 -0.0157,15.141544 0.25,18.412109 0.13286,1.635283 0.32569,2.731061 0.60352,3.550781 0.27782,0.819721 0.64458,1.360733 1.10742,1.873047 1.04499,1.156689 2.53277,1.626122 5.05469,1.621094 2.22633,-0.0048 4.41333,-0.439622 6.38086,-1.267578 0.78958,-0.332266 1.69303,-0.66343 1.95703,-0.72461 L 169.0801,58.603519 169,62.3125 c -0.0499,2.262106 -0.10757,3.478823 -0.33789,4.183594 -0.11516,0.352385 -0.26751,0.574461 -0.48828,0.757812 -0.22078,0.183351 -0.5159,0.327533 -0.91211,0.492188 l -1.18555,0.490234 v 2.582031 c 0,0.687367 -0.014,1.353888 -0.0391,1.871094 -0.0125,0.258603 -0.0286,0.480981 -0.0449,0.648438 -0.0163,0.167457 -0.0408,0.29069 -0.0469,0.30664 l -0.0586,0.15625 h 0.0586 c -6.4e-4,0.04454 -0.0254,0.08852 0,0.13086 0.0557,0.0929 0.15661,0.133014 0.28711,0.160156 0.26101,0.05428 0.70222,0.06005 1.47656,0.05273 0.80797,-0.0076 1.86073,-0.08826 2.64258,-0.179687 0.39093,-0.04571 0.71142,-0.09299 0.90821,-0.138672 0.0492,-0.01142 0.0916,-0.02284 0.12695,-0.03516 0.0353,-0.01232 0.0616,-0.01699 0.0996,-0.05469 0.019,-0.01885 0.0474,-0.06211 0.0391,-0.113281 -7.5e-4,-0.0046 -0.005,-0.0036 -0.006,-0.0078 0.0572,-0.0248 0.11004,-0.04718 0.20508,-0.08203 0.27374,-0.100387 0.68564,-0.236162 1.16797,-0.378906 3.02248,-0.894533 4.76685,-2.483675 5.39648,-4.941406 0.15597,-0.608824 0.23854,-1.727689 0.2793,-5.234375 0.0408,-3.506686 0.0369,-9.399183 0.0117,-19.539063 l -0.0586,-23.509765 h -5.02343 -5.02344 l -0.0586,16.720703 -0.0586,16.537109 -0.57226,0.296875 c -0.41431,0.21424 -0.95813,0.382345 -1.47852,0.472656 -0.52039,0.09031 -1.0215,0.101386 -1.33984,0.02148 -0.26202,-0.06576 -0.70143,-0.399455 -0.9043,-0.708985 -0.0828,-0.126285 -0.14852,-0.289176 -0.20508,-0.716797 -0.0566,-0.42762 -0.10008,-1.110185 -0.13476,-2.248046 -0.0694,-2.275724 -0.10543,-6.373506 -0.15821,-13.925782 l -0.11328,-16.449218 h -5.02344 z m 47.5039,0.115234 c -2.37726,0.004 -6.15746,0.915783 -7.76953,1.886719 -0.22145,0.133376 -0.39805,0.223686 -0.5332,0.265625 -0.13516,0.04194 -0.21984,0.03799 -0.29297,0 -0.0731,-0.03799 -0.1478,-0.124481 -0.22656,-0.283204 -0.0788,-0.158722 -0.1594,-0.383792 -0.24805,-0.679687 -0.0783,-0.261435 -0.1771,-0.508963 -0.27539,-0.701172 -0.0491,-0.0961 -0.0976,-0.178589 -0.14648,-0.244141 -0.0488,-0.06555 -0.0909,-0.118009 -0.16797,-0.146484 -0.0332,-0.01227 -0.0502,-0.01174 -0.0762,-0.01367 -0.026,-0.0019 -0.0556,-0.0037 -0.0918,-0.0039 -0.0724,-4.76e-4 -0.16816,0.003 -0.28516,0.0078 -0.23399,0.0097 -0.55464,0.02842 -0.93945,0.05664 -0.76962,0.05644 -1.7967,0.147643 -2.89649,0.257813 l -4.0996,0.410156 v 19.738281 19.75 h 4.91015 4.91016 l 0.0586,-16.509765 0.0586,-16.320313 0.70507,-0.292969 c 0.57776,-0.241401 1.19853,-0.402281 1.73828,-0.464844 0.53976,-0.06256 0.99969,-0.02 1.23047,0.103516 0.27024,0.144629 0.43176,0.212334 0.57032,0.511719 0.13856,0.299385 0.24402,0.849884 0.3164,1.917969 0.14477,2.136168 0.17015,6.33808 0.23047,14.84375 l 0.11523,16.208984 4.90626,0.123047 c 7.4e-4,1.9e-5 10e-4,-1.9e-5 0.002,0 1.31753,0.03331 2.53444,0.07055 3.43359,0.101562 0.44983,0.01551 0.8208,0.02891 1.08399,0.04102 0.13159,0.0061 0.23656,0.01279 0.31054,0.01758 0.037,0.0024 0.0657,0.004 0.0859,0.0059 0.0203,0.0019 0.0413,0.0077 0.0215,0.002 8e-4,2.35e-4 0.11248,-0.02659 0.11328,-0.02734 8e-4,-7.55e-4 0.0231,-0.02986 0.0273,-0.03906 0.008,-0.0184 0.009,-0.02958 0.0117,-0.04102 0.005,-0.02286 0.008,-0.04622 0.0117,-0.07813 0.006,-0.0638 0.0118,-0.154893 0.0176,-0.273438 0.0115,-0.237088 0.0232,-0.583807 0.0332,-1.027343 0.02,-0.887074 0.0368,-2.158891 0.0508,-3.691407 0.0279,-3.065031 0.0439,-7.175052 0.0469,-11.339843 0.003,-4.164792 -0.008,-8.384319 -0.0313,-11.669922 -0.0117,-1.642802 -0.0263,-3.051249 -0.0449,-4.103516 -0.0186,-1.052267 -0.0382,-1.736145 -0.0664,-1.970703 -0.0401,-0.333501 -0.0988,-0.622967 -0.16407,-0.828125 -0.0326,-0.102579 -0.065,-0.182881 -0.10742,-0.246094 -0.0212,-0.03161 -0.0447,-0.06145 -0.0859,-0.08398 -0.0367,-0.02003 -0.0962,-0.01492 -0.14063,0.0039 0.01,0.003 0.008,0.0066 0,-0.0059 -0.016,-0.02492 -0.0391,-0.101276 -0.0391,-0.205079 0,-0.498656 -0.1927,-1.139593 -0.48438,-1.763671 -0.29167,-0.624079 -0.68252,-1.228302 -1.09961,-1.634766 -0.97523,-0.950381 -2.8559,-1.567497 -4.6875,-1.564453 z m -136.445307,0.002 c -3.291868,4.47e-4 -5.048998,0.223437 -7.367188,0.939453 -1.314625,0.406046 -1.803128,0.71995 -2.984375,1.91211 -0.812348,0.819852 -1.539585,1.786254 -1.74414,2.359374 -0.146762,0.411198 -0.223942,1.282267 -0.283204,3.498047 -0.05926,2.215781 -0.093,5.76599 -0.123046,11.484375 -0.03578,6.810301 -0.05106,10.32957 0,12.337891 0.05106,2.008321 0.173479,2.519956 0.402343,3.273437 0.431838,1.42173 1.193463,2.538115 2.34961,3.384766 1.156146,0.846652 2.702061,1.42654 4.707031,1.798828 l 0.134766,0.02344 v -0.01563 c 2.224406,0.385585 7.682901,0.392949 9.83789,0.002 2.783688,-0.505068 4.18286,-1.143586 5.480469,-2.515625 1.031283,-1.090429 1.56449,-1.547583 1.808594,-3.695313 0.244104,-2.147729 0.226562,-6.005348 0.226562,-14.011718 0,-8.17439 0.01996,-12.108116 -0.242187,-14.291016 -0.262151,-2.1829 -0.836185,-2.631516 -1.945313,-3.716797 -1.074534,-1.051433 -1.648725,-1.407182 -2.9375,-1.818359 -2.297121,-0.732886 -3.972645,-0.949676 -7.320312,-0.949219 z M 41.3047,20.132862 c -0.07412,-0.0011 -0.170549,-3.99e-4 -0.289063,0.0039 -0.237027,0.0086 -0.560208,0.02925 -0.947266,0.05664 -0.774115,0.05477 -1.804425,0.143731 -2.904297,0.253907 l -4.097656,0.410156 -0.05859,19.509766 c -0.01622,5.337297 -0.01914,10.222424 -0.0098,13.792968 0.0047,1.785272 0.0132,3.242929 0.02344,4.263672 0.0051,0.510372 0.0092,0.910023 0.01563,1.189453 0.0032,0.139715 0.0081,0.250206 0.01172,0.328125 0.0018,0.03896 0.0019,0.06944 0.0039,0.09375 0.001,0.01216 0.0025,0.02318 0.0039,0.0332 0.0014,0.01003 10e-4,0.01615 0.0098,0.03906 l 0.115235,0.300781 0.05078,-0.15625 c 0.05525,0.02464 0.11458,0.04579 0.195312,0.0625 0.183849,0.03804 0.447449,0.06439 0.822266,0.08203 0.749634,0.03528 1.943287,0.03563 3.779297,0.01172 l 4.855469,-0.0625 0.05859,-15.933594 c 0.02494,-6.726996 0.05222,-10.687494 0.107422,-12.976562 0.0276,-1.144534 0.06293,-1.872116 0.107422,-2.314453 0.02225,-0.221169 0.04735,-0.37109 0.07227,-0.460938 0.02491,-0.08985 0.05482,-0.09993 0.02344,-0.08789 0.0071,-0.0027 0.146682,-0.03031 0.332032,-0.05273 0.185349,-0.02243 0.432672,-0.04717 0.726562,-0.07227 0.58778,-0.05018 1.356515,-0.102621 2.160156,-0.144532 l 3.025391,-0.158203 0.294922,-3.18164 c 0.07891,-0.848966 0.144068,-1.698385 0.185547,-2.386719 0.04148,-0.688335 0.06091,-1.203983 0.04297,-1.421875 l -0.06836,-0.833985 -1.560547,0.31836 c -0.806651,0.165425 -2.292529,0.673708 -3.333984,1.136719 -0.722249,0.321097 -1.258725,0.561372 -1.658203,0.716797 -0.399479,0.155424 -0.663992,0.222257 -0.81836,0.210937 -0.07718,-0.0057 -0.124867,-0.02683 -0.167969,-0.0625 -0.0431,-0.03567 -0.08218,-0.09151 -0.11914,-0.177734 -0.07393,-0.172447 -0.129978,-0.455365 -0.208984,-0.835938 -0.07498,-0.361146 -0.173571,-0.699022 -0.273438,-0.958984 -0.04993,-0.129982 -0.09992,-0.240168 -0.150391,-0.326172 -0.05047,-0.086 -0.08945,-0.154548 -0.183593,-0.189453 -0.03183,-0.0118 -0.05125,-0.01333 -0.07813,-0.01563 -0.02688,-0.0023 -0.05864,-0.0034 -0.0957,-0.0039 z m 112.32617,0.02539 h 4.79687 4.79493 l 0.11328,16.222656 c 0.0528,7.552428 0.0906,11.648046 0.16015,13.929688 0.0348,1.140821 0.0761,1.827674 0.13477,2.271484 0.0587,0.44381 0.13889,0.654885 0.24219,0.8125 0.23987,0.365991 0.67465,0.713229 1.03906,0.804688 0.37555,0.09426 0.89299,0.07624 1.43359,-0.01758 0.5406,-0.09382 1.10184,-0.265021 1.54492,-0.494141 l 0.69532,-0.359375 0.0586,-16.677734 0.0586,-16.492188 h 4.79493 4.79492 l 0.0586,23.28125 c 0.0252,10.139705 0.029,16.033529 -0.0117,19.537109 -0.0407,3.503581 -0.12773,4.618531 -0.27148,5.179688 -0.61059,2.383369 -2.26474,3.898669 -5.24024,4.779297 -0.4857,0.143745 -0.90208,0.279575 -1.18359,0.382812 -0.14075,0.05162 -0.24547,0.09311 -0.31641,0.128907 -0.0355,0.0179 -0.0594,0.0266 -0.0937,0.06445 -0.009,0.0095 -0.0191,0.02137 -0.0273,0.04492 -0.002,0.0059 -0.006,0.01906 -0.006,0.01953 -8e-5,4.73e-4 -0.002,0.02494 -0.002,0.02539 0,6.5e-5 -1.2e-4,0.0034 0,0.0039 -0.17825,0.04082 -0.49251,0.08808 -0.875,0.132812 -0.77359,0.09046 -1.8225,0.170232 -2.61719,0.177735 -0.77189,0.0073 -1.21769,-0.0032 -1.42773,-0.04687 -0.10502,-0.02184 -0.13681,-0.05157 -0.13868,-0.05469 -0.002,-0.0031 -0.006,-0.02236 0.0195,-0.08789 l 0.0586,-0.154296 h -0.0352 c 0.0114,-0.0654 0.0273,-0.112297 0.0371,-0.212891 0.0169,-0.173384 0.0303,-0.397169 0.043,-0.658203 0.0252,-0.522069 0.041,-1.191999 0.041,-1.882813 V 68.38871 l 1.04297,-0.433594 c 0.40183,-0.166995 0.72014,-0.315681 0.97265,-0.52539 0.25251,-0.20971 0.43342,-0.480246 0.5586,-0.863282 0.25035,-0.766071 0.29969,-1.986116 0.34961,-4.25 l 0.0879,-4.001953 -0.67579,0.15625 c -0.32286,0.07482 -1.19774,0.401194 -1.99414,0.736328 -1.93803,0.815544 -4.09795,1.245272 -6.29492,1.25 -2.49389,0.005 -3.89096,-0.44489 -4.88476,-1.544922 -0.44954,-0.497581 -0.79036,-1.003502 -1.0586,-1.794921 -0.26823,-0.79142 -0.45972,-1.870407 -0.59179,-3.496094 -0.26416,-3.251375 -0.29176,-8.686585 -0.25,-18.392578 z m -56.039061,0.109375 c -1.821335,-0.293335 -6.923496,-0.28731 -8.753906,0.0098 -2.991555,0.485529 -4.410823,1.090269 -5.84961,2.5 -1.12051,1.097883 -1.422269,1.5796 -1.828125,2.908203 -0.232102,0.759815 -0.35609,1.285789 -0.417968,3.240234 -0.06188,1.954445 -0.06641,5.351084 -0.06641,11.896485 0,6.487541 0.0057,9.888876 0.06641,11.851562 0.06068,1.962686 0.180185,2.500975 0.404296,3.226563 0.432681,1.400858 1.199032,2.505387 2.355469,3.345703 1.136043,0.825496 2.655985,1.393406 4.595703,1.763672 v 0.0078 l 0.09375,0.01758 c 2.162401,0.401471 7.788104,0.406126 9.972656,0.0098 2.851396,-0.517349 4.170446,-1.136337 5.601556,-2.636719 1.01872,-1.06803 1.557,-1.62938 1.80079,-3.919922 0.24378,-2.290541 0.21953,-6.330381 0.17968,-14.464843 -0.0332,-6.78884 -0.0488,-10.185763 -0.12304,-12.052735 -0.0743,-1.866972 -0.21387,-2.226819 -0.47657,-2.876953 -1.05468,-2.610132 -3.52601,-4.177262 -7.554681,-4.826172 z m 103.316401,0.0059 c 1.77915,-0.003 3.62322,0.618918 4.52735,1.5 0.38687,0.377013 0.77048,0.962503 1.05273,1.566406 0.28225,0.603902 0.46289,1.22992 0.46289,1.667968 0,0.132417 0.0207,0.241541 0.0762,0.328126 0.0278,0.04329 0.068,0.08404 0.125,0.101562 0.0341,0.01048 0.0671,-0.0071 0.10157,-0.01563 0.002,0.0022 -0.001,-8.97e-4 0.002,0.0039 0.0193,0.02882 0.049,0.09593 0.0781,0.1875 0.0582,0.183139 0.11749,0.464433 0.15625,0.78711 0.023,0.19167 0.0459,0.896414 0.0645,1.947265 0.0186,1.050851 0.0332,2.459229 0.0449,4.101563 0.0234,3.284667 0.0342,7.503647 0.0312,11.667969 -0.003,4.164321 -0.019,8.273935 -0.0469,11.33789 -0.0139,1.531978 -0.0309,2.802419 -0.0508,3.6875 -0.01,0.442541 -0.0199,0.788369 -0.0312,1.021484 -0.005,0.105243 -0.0105,0.180278 -0.0156,0.236329 -0.0117,-8.4e-4 -0.0197,-0.0011 -0.0332,-0.002 -0.0766,-0.005 -0.18206,-0.0095 -0.31445,-0.01563 -0.26476,-0.01217 -0.63559,-0.02744 -1.08594,-0.04297 -0.90068,-0.03106 -2.1185,-0.06627 -3.4375,-0.09961 h -0.004 l -4.68164,-0.11914 -0.11328,-15.988282 c -0.0603,-8.505611 -0.0864,-12.703067 -0.23243,-14.857421 -0.073,-1.077178 -0.17217,-1.644214 -0.33593,-1.998047 -0.16376,-0.353833 -0.40269,-0.475212 -0.66797,-0.617188 -0.31463,-0.168378 -0.80147,-0.194251 -1.36524,-0.128906 -0.56376,0.06535 -1.20236,0.230435 -1.80078,0.480469 l -0.8457,0.351562 -0.0586,16.472657 -0.0586,16.283203 h -4.68164 -4.68164 V 40.595703 21.064453 l 3.89453,-0.390625 c 1.09804,-0.109995 2.1239,-0.199629 2.89063,-0.255859 0.38336,-0.02812 0.70189,-0.04905 0.93164,-0.05859 0.11487,-0.0048 0.20744,-0.0063 0.27343,-0.0059 0.033,2.17e-4 0.0585,6.37e-4 0.0762,0.002 0.0177,0.0013 0.0322,0.0061 0.0156,0 -0.0105,-0.0039 0.0252,0.02027 0.0625,0.07031 0.0373,0.05005 0.0818,0.122704 0.12696,0.210938 0.0902,0.176467 0.18524,0.413386 0.25976,0.662109 0.0902,0.300917 0.17203,0.536055 0.26172,0.716797 0.0897,0.180742 0.18924,0.313635 0.32617,0.384766 0.13693,0.07113 0.29634,0.06596 0.46485,0.01367 0.1685,-0.05229 0.35619,-0.149915 0.58398,-0.287109 1.52889,-0.920835 5.3343,-1.849659 7.65234,-1.853515 z m -136.445307,0.002 c 3.337898,-4.56e-4 4.970907,0.210366 7.25,0.9375 1.272021,0.405832 1.783262,0.724114 2.847656,1.765625 1.115732,1.091742 1.62081,1.430943 1.878906,3.580078 0.258096,2.149135 0.240234,6.088947 0.240235,14.263672 0,8.006679 0.01587,11.87047 -0.22461,13.986328 -0.240482,2.115858 -0.710746,2.465708 -1.748047,3.5625 -1.266173,1.3388 -2.58954,1.947727 -5.353515,2.449218 -2.114886,0.383721 -7.801182,0.378621 -9.892578,-0.0098 -1.983878,-0.368372 -3.495464,-0.939229 -4.613282,-1.757813 -1.117818,-0.818583 -1.847689,-1.885187 -2.267578,-3.267578 -0.22715,-0.747838 -0.339767,-1.212496 -0.390625,-3.21289 -0.05086,-2.000395 -0.03578,-5.519857 0,-12.330078 0.03004,-5.717991 0.0639,-9.26891 0.123047,-11.480469 0.05915,-2.211559 0.150593,-3.094493 0.269531,-3.427735 0.172242,-0.482585 0.895339,-1.471969 1.691407,-2.27539 1.173744,-1.184588 1.589279,-1.452175 2.888671,-1.853516 2.300062,-0.710417 4.019173,-0.929242 7.300782,-0.929687 z m -23.160157,0.08594 c 0.03369,5.02e-4 0.05975,0.0023 0.07813,0.0039 0.01838,0.0016 0.03111,0.005 0.01758,0 -0.02093,-0.0078 0.02596,0.02288 0.06641,0.0918 0.04044,0.06892 0.08779,0.168739 0.134765,0.291016 0.09395,0.244553 0.189051,0.575744 0.261719,0.925781 0.07866,0.378914 0.131064,0.665253 0.222656,0.878906 0.0458,0.106827 0.102752,0.196765 0.183594,0.263672 0.08084,0.06691 0.184739,0.104916 0.298828,0.113282 0.228179,0.01673 0.506747,-0.06538 0.916016,-0.22461 0.409269,-0.159234 0.948046,-0.399771 1.669922,-0.720703 1.024083,-0.455287 2.517198,-0.963203 3.287109,-1.121094 l 1.306641,-0.269531 0.04687,0.580078 c 0.01406,0.170753 -0.0017,0.703392 -0.04297,1.388672 -0.04129,0.68528 -0.104911,1.534365 -0.183594,2.380859 l -0.277344,2.984375 -2.828124,0.146485 c -0.805932,0.04203 -1.574821,0.09406 -2.166016,0.144531 -0.295598,0.02524 -0.546557,0.05125 -0.736328,0.07422 -0.189772,0.02296 -0.302231,0.03474 -0.384766,0.06641 -0.100663,0.03863 -0.132593,0.126739 -0.164062,0.240234 -0.03147,0.113496 -0.05718,0.272391 -0.08008,0.5 -0.04579,0.455219 -0.07977,1.18522 -0.107422,2.332032 -0.05531,2.293623 -0.08248,6.253197 -0.107422,12.980468 l -0.05859,15.707032 -4.630859,0.06055 c -1.83464,0.02389 -3.025277,0.02304 -3.763672,-0.01172 -0.369198,-0.01738 -0.626307,-0.0429 -0.78711,-0.07617 -0.0804,-0.01664 -0.136978,-0.03717 -0.167968,-0.05273 -0.02656,-0.01334 -0.02517,-0.01547 -0.02344,-0.01172 -3.87e-4,-0.0036 -0.0015,-0.0064 -0.002,-0.01172 -0.0016,-0.01924 -0.0041,-0.04861 -0.0059,-0.08594 -0.0034,-0.07466 -0.0066,-0.181537 -0.0098,-0.320313 -0.0064,-0.277553 -0.01246,-0.679604 -0.01758,-1.189453 -0.01023,-1.019698 -0.0168,-2.474816 -0.02148,-4.259766 -0.0094,-3.5699 -0.0064,-8.454075 0.0098,-13.791015 l 0.05859,-19.304688 3.892578,-0.390625 c 1.097947,-0.109982 2.12553,-0.199356 2.896484,-0.253906 0.385477,-0.02727 0.706989,-0.04624 0.939454,-0.05469 0.116232,-0.0042 0.211913,-0.0049 0.279296,-0.0039 z M 97.5547,20.49428 c 3.98656,0.642126 6.35855,2.160384 7.3789,4.685547 0.26264,0.649969 0.38706,0.943465 0.46094,2.800781 0.0739,1.857315 0.0898,5.256084 0.12305,12.044922 0.0399,8.134514 0.0609,12.178693 -0.17969,14.439453 -0.24062,2.26076 -0.71652,2.715976 -1.73633,3.785156 -1.405,1.472998 -2.644,2.056382 -5.476558,2.570312 -2.114888,0.383721 -7.801177,0.378524 -9.892578,-0.0098 -1.969131,-0.365633 -3.47916,-0.935301 -4.597656,-1.748047 -1.118497,-0.812746 -1.849196,-1.867624 -2.269532,-3.228516 -0.221638,-0.717582 -0.334093,-1.213065 -0.394531,-3.167968 -0.06044,-1.954904 -0.06641,-5.356322 -0.06641,-11.84375 0,-6.545309 0.0048,-9.942302 0.06641,-11.888672 0.06162,-1.94637 0.175986,-2.427841 0.40625,-3.181641 0.401408,-1.314043 0.659473,-1.722944 1.771485,-2.8125 1.409028,-1.380573 2.752907,-1.952922 5.726562,-2.435547 1.76295,-0.286126 6.926562,-0.292115 8.679688,-0.0098 z m -33.25,5.894531 c -0.919256,0.02614 -1.579068,0.451508 -2.050782,1.314453 -0.09793,0.179142 -0.176137,0.388856 -0.232422,0.763672 -0.05628,0.374816 -0.09388,0.919838 -0.121093,1.789062 -0.05443,1.73845 -0.0625,4.778549 -0.0625,10.339844 0,6.638533 -0.0019,9.944835 0.167968,11.712891 0.08494,0.884028 0.211126,1.389271 0.416016,1.734375 0.20489,0.345104 0.483753,0.512331 0.822266,0.71875 0.416765,0.254147 0.748964,0.398077 1.089843,0.423828 0.34088,0.02575 0.677187,-0.06819 1.097657,-0.259766 0.381547,-0.173847 0.840609,-0.689348 1.09375,-1.185547 0.106652,-0.209055 0.191698,-0.421071 0.253906,-0.787109 0.06221,-0.366038 0.103941,-0.889284 0.132812,-1.744141 0.05774,-1.709713 0.0625,-4.749404 0.0625,-10.5 0,-5.817899 -0.0035,-8.857129 -0.0625,-10.552734 -0.02952,-0.847803 -0.0721,-1.360304 -0.136718,-1.720703 -0.06462,-0.360399 -0.154946,-0.570162 -0.265625,-0.787109 C 66.27149,27.181495 66.001042,26.853853 65.644543,26.65053 65.288044,26.447206 64.855741,26.373143 64.3047,26.388811 Z m 28.771484,0 c -0.919261,0.02614 -1.579072,0.451508 -2.050781,1.314453 -0.09793,0.179142 -0.176138,0.388856 -0.232422,0.763672 -0.05629,0.374816 -0.09388,0.919838 -0.121094,1.789062 -0.05443,1.73845 -0.0625,4.778549 -0.0625,10.339844 0,6.638534 -0.002,9.944835 0.167969,11.712891 0.08496,0.884027 0.211143,1.389274 0.416015,1.734375 0.204873,0.3451 0.48383,0.512332 0.822266,0.71875 0.416767,0.254147 0.748964,0.398077 1.089844,0.423828 0.34088,0.02575 0.677185,-0.06819 1.097656,-0.259766 0.381542,-0.173847 0.840607,-0.689349 1.09375,-1.185547 0.106652,-0.209055 0.191698,-0.421071 0.253906,-0.787109 0.06221,-0.366038 0.10394,-0.889284 0.132813,-1.744141 0.05774,-1.709713 0.0625,-4.749404 0.0625,-10.5 0,-5.817899 -0.0035,-8.857129 -0.0625,-10.552734 -0.02952,-0.847803 -0.07209,-1.360304 -0.136719,-1.720703 -0.06463,-0.3604 -0.154941,-0.570162 -0.265625,-0.787109 -0.238285,-0.467083 -0.508736,-0.794724 -0.865234,-0.998047 -0.356499,-0.203324 -0.788806,-0.277387 -1.339844,-0.261719 z m -28.765625,0.228516 c 0.527516,-0.015 0.912689,0.0548 1.220703,0.230468 0.308014,0.175671 0.549013,0.46056 0.775391,0.904297 0.106696,0.20914 0.183095,0.384165 0.24414,0.724609 0.06105,0.340445 0.103456,0.846201 0.132813,1.689454 0.05871,1.686505 0.0625,4.725188 0.0625,10.542968 0,5.750448 -0.005,8.791128 -0.0625,10.492188 -0.02873,0.85053 -0.06992,1.365821 -0.128906,1.71289 -0.05898,0.34707 -0.133042,0.524027 -0.234376,0.722657 -0.229073,0.449022 -0.704057,0.953245 -0.982421,1.080078 -0.404367,0.184241 -0.698,0.262016 -0.986329,0.240234 -0.288328,-0.02178 -0.58497,-0.144682 -0.988281,-0.390625 -0.339073,-0.206761 -0.568507,-0.344798 -0.74414,-0.640625 -0.175634,-0.295827 -0.303089,-0.768291 -0.386719,-1.638672 -0.16726,-1.74076 -0.166016,-5.052854 -0.166016,-11.691406 0,-5.561073 0.0083,-8.603165 0.0625,-10.333984 0.0271,-0.86541 0.06542,-1.40204 0.119141,-1.759766 0.05372,-0.357726 0.118293,-0.53069 0.205078,-0.689453 0.445254,-0.814541 1.002109,-1.170992 1.857422,-1.195312 z m 28.771484,0 c 0.527512,-0.015 0.912689,0.0548 1.220703,0.230468 0.308014,0.175671 0.549016,0.46056 0.775391,0.904297 0.106701,0.20914 0.183093,0.384165 0.244141,0.724609 0.06105,0.340445 0.103456,0.846201 0.132812,1.689454 0.05871,1.686505 0.0625,4.725188 0.0625,10.542968 0,5.750448 -0.005,8.791128 -0.0625,10.492188 -0.02873,0.85053 -0.06992,1.365821 -0.128906,1.71289 -0.05898,0.34707 -0.133042,0.524027 -0.234375,0.722657 -0.229077,0.449022 -0.704064,0.953245 -0.982422,1.080078 -0.404369,0.184242 -0.697998,0.262016 -0.986328,0.240234 -0.28833,-0.02178 -0.584968,-0.144682 -0.988281,-0.390625 -0.339,-0.206762 -0.568519,-0.344795 -0.744141,-0.640625 -0.175622,-0.29583 -0.30307,-0.768291 -0.386719,-1.638672 -0.167297,-1.74076 -0.166015,-5.052855 -0.166015,-11.691406 0,-5.561072 0.0083,-8.603165 0.0625,-10.333984 0.0271,-0.86541 0.06542,-1.40204 0.11914,-1.759766 0.05372,-0.357726 0.118293,-0.53069 0.205078,-0.689453 0.445251,-0.814541 1.002103,-1.170992 1.857422,-1.195312 z m -77.892578,10.373046 -2.216797,0.06836 -0.06055,8.330078 c -0.01651,2.260738 -0.01882,4.348205 -0.0098,5.890625 0.0045,0.77121 0.01137,1.404651 0.02148,1.857422 0.0051,0.226385 0.01115,0.408621 0.01758,0.539062 0.0032,0.06522 0.006,0.117614 0.0098,0.158203 0.0037,0.04059 1.65e-4,0.05618 0.01758,0.101563 0.04714,0.122853 0.159475,0.168725 0.294922,0.212891 0.135447,0.04416 0.309286,0.07623 0.513672,0.101562 0.408771,0.05067 0.941106,0.07031 1.498047,0.06055 0.55694,-0.0098 1.13723,-0.04911 1.644531,-0.115235 0.5073,-0.06613 0.937398,-0.155643 1.208984,-0.285156 0.456729,-0.217798 0.928155,-0.6256 1.089844,-0.980468 0.05997,-0.131616 0.08573,-0.345948 0.117188,-0.701172 0.03146,-0.355225 0.05893,-0.836082 0.08008,-1.441407 0.04229,-1.210649 0.06445,-2.915374 0.06445,-5.076171 0,-3.645182 -0.01243,-5.551293 -0.195313,-6.654297 -0.09144,-0.551503 -0.228306,-0.909361 -0.435547,-1.171875 -0.207241,-0.262515 -0.476866,-0.421197 -0.810547,-0.59375 -0.540122,-0.27931 -1.282673,-0.349555 -2.849609,-0.300782 z m 0.0078,0.228516 c 1.557468,-0.04848 2.258846,0.02847 2.736328,0.275391 0.327341,0.169274 0.561058,0.311187 0.736328,0.533203 0.175269,0.222015 0.300611,0.535302 0.388672,1.066406 0.176121,1.062209 0.193359,2.972602 0.193359,6.617188 0,2.159262 -0.02233,3.860501 -0.06445,5.066406 -0.02106,0.602952 -0.04728,1.083401 -0.07813,1.43164 -0.03084,0.34824 -0.0759,0.579209 -0.09766,0.626954 -0.113922,0.250031 -0.573978,0.673345 -0.980469,0.867187 -0.221459,0.105608 -0.644255,0.200923 -1.140625,0.265625 -0.49637,0.0647 -1.069989,0.103657 -1.619141,0.113281 -0.549151,0.0096 -1.073304,-0.01006 -1.464843,-0.05859 -0.19577,-0.02427 -0.358978,-0.05537 -0.470703,-0.0918 -0.111726,-0.03643 -0.158278,-0.0885 -0.154297,-0.07813 0.0099,0.02568 -6.86e-4,-0.006 -0.0039,-0.04102 -0.0032,-0.035 -0.0047,-0.08508 -0.0078,-0.148438 -0.0062,-0.126704 -0.01254,-0.305999 -0.01758,-0.53125 -0.01007,-0.450501 -0.01696,-1.084993 -0.02149,-1.855468 -0.009,-1.54095 -0.0067,-3.62683 0.0098,-5.886719 l 0.05859,-8.109375 z"
       id="path430"
       inkscape:connector-curvature="0" />
  </g>
</svg>
