<?xml version="1.0" encoding="UTF-8"?>
<!DOCTYPE svg PUBLIC "-//W3C//DTD SVG 1.1//EN" "http://www.w3.org/Graphics/SVG/1.1/DTD/svg11.dtd">
<!-- Creator: CorelDRAW X8 -->
<svg xmlns="http://www.w3.org/2000/svg" xml:space="preserve" width="100%" height="100%" version="1.1" shape-rendering="geometricPrecision" text-rendering="geometricPrecision" image-rendering="optimizeQuality" fill-rule="evenodd" clip-rule="evenodd"
viewBox="0 0 850 1100"
 xmlns:xlink="http://www.w3.org/1999/xlink">
 <g id="Layer_x0020_1">
  <metadata id="CorelCorpID_0Corel-Layer"/>
  <path fill="#8B1B3F" d="M52 345l0 -67c27,0 24,-1 24,33 0,30 6,34 -24,34zm0 -95l0 -69c7,0 19,-4 22,5 3,5 2,53 1,57 -3,10 -14,7 -23,7zm-42 -93l0 214c20,0 39,0 58,0 57,0 50,-17 50,-66 0,-9 0,-19 -1,-28 -2,-11 -4,-12 -12,-18 6,-6 9,-5 12,-16 1,-9 1,-19 1,-28 0,-15 3,-38 -9,-49 -19,-20 -73,-11 -99,-9z"/>
  <path fill="#8B1B3F" d="M615 328c0,24 1,44 29,44 16,0 21,-2 34,-9 0,8 1,17 0,25 -1,9 -3,12 -12,13l0 25c28,0 52,-3 52,-37l0 -182 -43 0 0 135c-7,2 -18,8 -18,-9l0 -126 -42 0 0 121z"/>
  <path fill="#8B1B3F" d="M669 601c6,0 11,-1 14,6 9,22 -25,25 -14,-6zm-2 -75c-1,-7 0,-33 0,-42 0,-24 15,-19 17,-9 1,10 0,31 0,42 0,5 1,13 -5,16 -6,3 -11,-2 -12,-7zm-31 25c-6,6 -13,9 -13,21 -1,18 5,14 12,24 -6,11 -10,16 -6,31 2,11 9,16 20,20 17,5 53,4 67,-9 12,-14 10,-47 -8,-57 -22,-11 -70,3 -53,-22 22,-2 52,5 65,-16 7,-13 3,-61 2,-77l14 1 0 -26c-24,0 -85,-5 -100,12 -11,12 -7,34 -7,49 0,18 -4,35 7,49z"/>
  <path fill="#8B1B3F" d="M439 165l-1 206 43 0 0 -83 21 84 46 -1c-1,-5 -22,-67 -26,-80 -2,-10 -1,-9 3,-19 2,-7 4,-13 6,-20 3,-7 13,-35 13,-40l-42 0 -21 69 0 -127 -42 11z"/>
  <path fill="#8B1B3F" d="M364 335c-2,-11 0,-52 0,-66 0,-8 -1,-25 3,-31 6,-8 15,-1 15,10 0,22 0,44 0,66 0,8 2,25 -2,31 -9,11 -15,-3 -16,-10zm-6 -126c-19,2 -35,8 -35,31 -1,22 0,45 0,67 0,17 -4,46 9,58 12,11 41,12 57,10 20,-3 34,-10 36,-32 1,-21 0,-46 0,-67 0,-17 3,-46 -10,-58 -13,-12 -40,-11 -57,-9z"/>
  <path fill="#8B1B3F" d="M248 336c-2,-11 0,-53 0,-67 0,-7 -1,-24 3,-30 5,-9 15,-3 16,8 0,22 0,45 0,67 0,7 1,25 -3,30 -7,12 -14,0 -16,-8zm-5 -127c-20,2 -35,8 -36,31 -1,22 0,45 0,67 0,17 -4,46 9,58 13,11 42,12 57,10 20,-3 35,-10 36,-32 1,-21 0,-46 0,-67 0,-17 4,-46 -10,-58 -14,-12 -39,-11 -56,-9z"/>
  <path fill="#8B1B3F" d="M734 211l-1 160 42 0c0,-5 -1,-129 0,-131 1,-2 -1,-2 6,-3 3,-1 5,-2 8,-1 7,5 4,54 4,66 0,23 0,46 0,69l41 0c0,-39 0,-78 0,-117 0,-34 -2,-51 -41,-45 -10,2 -14,6 -21,8l-2 -9 -36 3z"/>
  <path fill="#8B1B3F" d="M293 531l-39 1c0,7 1,28 0,34 -2,8 -18,12 -20,-2 -2,-14 0,-52 0,-69 0,-20 -2,-50 0,-68 1,-14 16,-13 19,-5 2,4 1,27 1,34l39 -2c0,-17 4,-44 -11,-55 -14,-10 -40,-9 -57,-7 -23,3 -30,16 -30,37l0 134c0,22 9,33 32,34 75,6 66,-21 66,-66z"/>
  <path fill="#8B1B3F" d="M343 560c-1,-6 -2,-83 2,-90 7,-9 15,-1 15,10 1,20 0,41 0,61 0,7 2,23 -2,29 -1,2 -11,10 -15,-10zm1 -118c-17,2 -34,2 -39,24 -2,10 -1,49 -1,63 0,14 -3,46 6,57 11,12 35,14 51,12 48,-6 39,-24 39,-87 0,-16 3,-44 -7,-57 -9,-13 -35,-14 -49,-12z"/>
  <path fill="#8B1B3F" d="M776 479c0,-9 3,-12 11,-12 3,4 5,4 5,10l0 29 -16 0 0 -27zm56 65l-40 2c0,14 2,16 -5,27 -10,0 -11,-4 -12,-14 0,-9 1,-18 1,-27l56 0c0,-18 1,-43 -1,-60 -1,-20 -13,-28 -32,-30 -15,-1 -39,-2 -52,8 -14,11 -10,34 -10,51 0,20 0,41 0,62 0,20 6,30 27,34 15,2 40,2 54,-5 17,-9 14,-32 14,-48z"/>
  <path fill="#8B1B3F" d="M559 480c0,-8 2,-13 11,-13 5,3 6,9 6,16l0 23 -17 0 0 -26zm56 64l-39 2c0,13 2,16 -5,27 -16,0 -12,-15 -12,-41l56 0c0,-18 1,-42 0,-60 -2,-20 -14,-28 -33,-30 -69,-6 -62,22 -62,59 0,20 0,41 0,61 0,21 6,31 27,35 15,2 41,2 54,-5 17,-9 14,-31 14,-48z"/>
  <polygon fill="#8B1B3F" points="556,165 556,371 597,371 597,154 "/>
  <polygon fill="#8B1B3F" points="414,402 414,595 453,595 453,391 "/>
  <polygon fill="#8B1B3F" points="467,402 467,595 505,595 505,391 "/>
  <path fill="#8B1B3F" d="M131 211l0 160 41 0 0 -128 26 -1 3 -33c-11,0 -21,6 -32,11l-2 -12 -36 3z"/>
  <path fill="#868686" d="M211 643c2,-1 1,0 6,0 -1,3 2,2 -3,2 -3,0 -3,-1 -3,-2zm-174 -98c10,1 -4,-8 22,8 7,4 14,9 21,13 14,8 29,18 44,26 7,4 84,51 85,51 -3,2 -10,4 -13,5 -15,5 -63,22 -73,26 -4,2 -10,4 -13,5 -21,7 -6,3 -16,2 3,5 4,3 4,10 0,6 0,6 -3,10l-1 3c14,16 30,32 44,47 6,7 14,16 21,23 6,7 17,17 22,24l2 1 5 -2c-8,-4 -38,-39 -47,-48 -6,-6 -42,-44 -43,-48 4,1 23,15 30,18 4,2 5,3 8,5 5,3 19,12 24,13 -2,-2 3,-2 -2,-2 1,0 0,-1 3,0 -3,-4 -3,-2 -7,-5l-40 -24c-3,-2 -13,-6 -15,-9 0,-1 1,-9 1,-10l100 -36c7,-2 11,-7 18,-2 5,3 32,19 36,20l-3 -2 5 1c-3,-5 -32,-19 -36,-23 1,-2 57,-22 61,-23 3,4 5,4 5,8 2,-1 2,3 1,-3 -5,-6 -8,-9 -4,-18 -9,3 11,7 -27,18 -11,3 -24,8 -35,12 -11,4 -7,2 -15,-3 -14,-7 -31,-18 -45,-26 -19,-12 -39,-24 -58,-35 -9,-6 -20,-13 -29,-18 -7,-4 -23,-15 -30,-17 1,-7 4,-9 0,-11 1,11 -2,10 -7,16z"/>
  <path fill="#8A8A8A" d="M304 697c6,0 35,10 43,13 15,4 32,8 45,13 13,5 28,8 43,13 3,2 32,9 33,11 0,4 -6,4 -10,5 -9,2 -16,3 -24,5 -8,1 -17,3 -24,5 -6,1 -4,2 -9,-1 -3,-2 -6,-4 -9,-6 -5,-3 -13,-8 -18,-12 -13,-10 -62,-40 -70,-46zm-27 -11c2,-4 0,-3 -2,-4 1,7 -1,10 2,16 3,6 10,6 11,9l2 18c1,2 0,2 1,5 0,0 1,0 1,1 0,0 0,0 1,0l-1 -7c0,-5 -2,-16 2,-19 0,5 1,6 0,11 0,4 0,9 1,13 0,6 1,3 3,4l-1 -7c0,-4 1,-9 1,-15 -1,-4 -1,-7 3,-10 7,1 41,26 49,31 16,10 35,23 49,33l-68 13c-6,2 -20,1 -22,7l7 -2 -3 3c5,0 26,-5 31,-6 8,-2 57,-13 60,-12 6,2 61,39 67,43 8,6 41,24 42,32l3 -5c-4,0 -3,0 -4,-3l-103 -69c7,-1 58,-13 60,-11l1 -2c-1,-7 1,-7 2,-13l-3 0c-1,5 -3,2 -8,0 -4,-2 -8,-3 -11,-3 -6,-2 -15,-5 -21,-7l-81 -25c-9,-2 -34,-11 -41,-12 0,-6 -1,-12 -7,-15 3,6 6,8 5,16 -1,4 -6,8 -9,9 -11,4 -22,-5 -19,-17z"/>
  <path fill="#797979" d="M287 806c-4,0 -1,3 -10,-4 -4,-2 -8,-4 -11,-6 1,0 25,-5 26,-6l2 10c-3,2 -6,2 -7,6zm-72 -36c-2,-2 -1,-1 0,-3 1,3 2,0 0,3zm50 -98c1,5 1,2 -1,4 -2,-4 -1,0 1,-4zm21 -42c-5,2 -16,36 -23,41 -4,-1 -4,-4 -7,-3l-5 -1 3 2c0,3 5,5 8,6l-24 45c-3,7 -20,40 -24,45 -5,-1 -48,-30 -53,-30 -3,-1 -2,0 -3,0 5,0 0,0 2,2 1,2 23,15 25,16 5,3 10,6 14,8 2,2 10,6 13,8l-12 25c-5,-1 -12,-2 -12,3 8,-4 10,-3 16,2 -1,-8 0,-6 4,-14 2,-3 6,-11 8,-13 3,1 17,9 20,11 5,4 12,8 20,11 -2,3 -2,1 -1,3 1,0 4,0 5,0 4,0 2,-1 4,2 0,2 14,9 16,9l4 2 0 2 3 -6c7,-4 9,-5 17,-2 -1,-3 -2,-2 -6,-4l-1 -9c4,-4 12,-3 16,-5l3 -3 -7 2c-6,-3 -6,0 -11,-1 -2,-6 2,-34 -1,-41 0,-6 -1,-3 -2,-5 0,4 1,10 0,13 -4,-5 -1,-6 -4,-11l1 8 -1 17c1,7 2,13 2,20 -5,3 -15,4 -22,5 -20,4 -2,5 -27,-7l-26 -16 23 -44c8,-15 16,-31 24,-46 4,1 6,5 10,5 2,1 4,0 2,4l2 -5c-2,0 -1,1 -3,-2l-9 -5c3,-5 8,-16 10,-21 3,-5 11,-16 10,-21 0,-3 -1,-1 1,-3l-1 -2c1,6 1,2 -1,3z"/>
  <path fill="#8D8D8D" d="M554 829l5 0 -2 3 -3 -3zm-18 7c-2,-7 -9,-3 -13,-5 -3,-3 -14,-28 -16,-34l-15 -34c2,0 55,57 61,66 -1,1 -5,3 -8,5 -5,3 -4,3 -9,2zm-38 -90c3,7 -4,14 -10,18l2 3 23 53c2,6 8,12 3,16l-4 -1c1,3 0,3 4,3 9,-7 11,-6 20,-2 3,3 4,5 6,7 0,-6 2,-4 7,-7 8,-4 3,-4 11,-2 -1,-4 -2,-1 1,-2 0,-4 18,-12 23,-15 4,-3 22,-12 23,-14 -1,-1 -3,1 0,-4 -4,2 -43,24 -50,28 -2,-2 -5,-5 -8,-8l-45 -50c-2,-3 -6,-6 -8,-9 0,-1 4,-10 4,-10l81 -5c10,-1 37,-1 48,-2 7,0 19,-2 25,-2 8,1 18,-1 26,-2 7,0 18,1 25,-1l-8 -1c2,1 10,1 12,-2 -10,-1 -15,0 -26,1 -9,1 -17,0 -27,1 -23,3 -41,1 -67,4 -5,1 -8,0 -12,0 -7,1 -19,3 -26,2l-53 3z"/>
  <path fill="#7C7C7C" d="M560 834c0,4 87,99 89,99l7 8c-1,0 -3,-2 -4,-2 -4,-2 -3,0 -5,-4 -3,-3 -21,-16 -26,-20 -8,-6 -18,-14 -26,-20l-54 -40c1,-3 5,-7 1,-10 0,4 0,6 -3,11l0 2 29 22c10,7 19,15 30,22 9,7 19,15 29,22 5,4 9,8 14,11 5,4 13,7 14,13 4,-3 2,-4 7,-7 6,-2 7,-1 12,-1 -1,-2 1,-1 -2,-2 -5,0 -8,0 -11,3 -5,-3 -87,-96 -100,-109 -3,1 -2,-2 -1,2z"/>
  <path fill="#909090" d="M307 826c12,-1 -17,-10 46,0 18,3 37,4 55,7 4,0 8,1 11,2 4,1 11,1 15,2 8,1 17,2 25,3 15,1 38,6 53,6 0,1 0,3 0,4 1,3 -1,1 2,2l-1 -9c-16,-4 -87,-10 -110,-15 -4,-1 -9,-1 -13,-2 -18,-2 -67,-9 -77,-9l-2 -4c0,5 1,9 -4,13z"/>
  <path fill="#7F7F7F" d="M303 628c5,0 1,0 5,-2 17,12 41,30 60,43 7,4 13,10 20,15 17,11 48,35 60,42 5,3 17,14 21,14l3 0c1,1 0,1 0,0l-1 -2 -122 -87c-5,-4 -38,-27 -39,-30l-1 0c-1,2 0,2 -3,4 -1,1 -2,2 -3,3z"/>
  <path fill="#FE0202" d="M655 948c-3,3 -3,12 1,14l5 4c5,3 8,3 13,2l4 -3 5 -5c3,0 1,-8 1,-8 -2,-3 -4,-7 -5,-9 -1,-3 -2,-3 -5,-3 -5,0 -6,-1 -12,1 -5,3 -3,4 -7,7z"/>
  <path fill="#FE0202" d="M16 528l-2 2c0,4 -1,10 3,11 6,5 11,10 20,4 5,-6 8,-5 7,-16 -4,-7 -3,-4 -8,-9 -11,-4 -14,0 -20,8z"/>
  <path fill="#FE0202" d="M287 806l-3 6c-3,5 -1,4 -1,10l-1 0c3,1 2,1 4,4l1 1c9,5 12,6 20,-1 5,-4 4,-8 4,-13 1,-2 2,-3 -1,-4l-3 -3 -3 -2c-8,-3 -10,-2 -17,2z"/>
  <path fill="#FD0101" d="M283 609c-4,9 -1,12 4,18l1 2 6 1 2 1 7 -3c1,-1 2,-2 3,-3 3,-2 2,-2 3,-4 1,-7 1,-7 -2,-14l-1 -2 -2 -1c-8,-5 -17,-3 -21,5z"/>
  <path fill="#FD0101" d="M279 681l-2 5c-3,12 8,21 19,17 3,-1 8,-5 9,-9 1,-8 -2,-10 -5,-16 -1,-2 0,-2 -3,-2l-9 -1c-2,2 -5,3 -9,6z"/>
  <path fill="#FD0101" d="M472 740c0,1 1,1 0,0 -1,6 -3,6 -2,13 2,3 2,5 6,8 4,3 7,3 12,3 6,-4 13,-11 10,-18 -3,-5 -5,-9 -10,-10 -8,-2 -10,1 -16,4z"/>
  <path fill="#FE0202" d="M516 838l-3 5 1 9 2 4c5,4 8,7 14,5 5,-2 6,-2 9,-5 3,-5 3,-7 3,-11l0 -2c-2,-2 -3,-4 -6,-7 -9,-4 -11,-5 -20,2z"/>
  <path fill="#FD0101" d="M188 797l-5 2c0,6 -7,11 1,20 5,6 12,5 19,2l4 -5c3,-10 2,-9 -3,-17 -6,-5 -8,-6 -16,-2z"/>
  <path fill="#FD0101" d="M717 725c-3,3 -6,5 -6,10 0,5 1,9 4,12 8,6 16,5 22,-2 5,-9 3,-18 -7,-22 -8,-2 -6,-1 -13,2z"/>
  <path fill="#FD0101" d="M95 701c3,-4 3,-4 3,-10 0,-7 -1,-5 -4,-10 -6,-4 -8,-4 -16,-4 -1,4 -5,3 -7,9 -2,4 -1,10 1,13 6,8 17,9 23,2z"/>
  <path fill="#8D8D8D" d="M77 676l1 1c8,0 10,0 16,4 1,-1 2,-3 -5,-5 -4,-1 -6,0 -8,0 -1,-2 -1,-3 -1,-4 -1,-3 -1,-1 -2,-3 -1,-3 -1,-6 -3,-9l-16 -49c-1,-4 -3,-4 -3,-7 -1,-5 -2,-6 -3,-9l-14 -41c-3,-5 -2,-2 -2,-9 -9,6 -14,1 -20,-4 4,9 9,6 16,8 1,1 4,13 5,16l39 111z"/>
  <path fill="#909090" d="M204 799c5,8 6,7 3,17 2,-1 1,0 3,-4 7,0 13,1 20,2l50 3 3 5c0,-6 -2,-5 1,-10l0 -2 -4 -2c1,1 2,2 2,3 -1,2 -1,2 -3,2l-14 -1c-3,0 -8,0 -9,0 -2,-1 0,-1 -4,-1 -5,-1 -1,1 -9,-1 -4,-1 -1,0 -4,0l-28 -2c1,-3 8,-2 12,-3 5,-1 9,-3 13,-4 5,0 10,-1 15,-2 3,0 4,-1 6,-2 3,0 3,1 7,2 -2,-3 0,-2 -4,-2 -1,0 -4,0 -5,0 -1,-2 -1,0 1,-3 -7,2 -32,6 -40,8 -9,3 -6,-1 -12,-3z"/>
  <path fill="#868686" d="M607 799c-3,5 -1,3 0,4 8,-3 16,-9 24,-13 3,-1 3,-1 5,-3 2,-1 4,-2 6,-3l23 -13c11,-6 23,-13 35,-19 -3,-2 -1,0 -3,-4l-27 16c-2,1 -4,2 -6,3 -4,2 -8,5 -12,7 -8,4 -15,8 -23,13 -2,1 -21,11 -22,12z"/>
  <path fill="#8A8A8A" d="M292 655l2 0 0 20c-4,-3 -2,-15 -2,-20zm1 -7l1 5 -1 -5zm3 -17c0,2 -1,5 -1,8 0,4 2,3 -1,6 -2,-4 0,-10 0,-15l-6 -1c-2,2 -1,0 -1,3l5 -2c0,3 0,4 0,5 -1,4 0,3 0,5 0,2 -1,4 -1,5 -1,4 0,3 0,6 0,1 -1,3 -1,4l0 18 -1 2 -1 0 9 1c0,-4 1,-7 1,-12 0,-5 -1,-4 0,-10 0,-4 0,-7 -1,-11 0,-3 1,-7 1,-11 6,-3 4,-3 5,-4l-7 3z"/>
  <path fill="#958A8A" d="M709 735c-2,3 -10,3 -12,2l8 1c3,0 2,-1 5,1 0,3 -1,2 -5,5 -2,1 -5,3 -8,4 2,4 0,2 3,4 4,-3 8,-6 12,-7 5,5 5,6 13,7 5,0 12,-1 12,-7 -6,7 -14,8 -22,2 -3,-3 -4,-7 -4,-12 0,-5 3,-7 6,-10 -4,-1 -7,7 -8,10z"/>
  <path fill="#B4B4B4" d="M292 748l-1 -8c3,5 0,6 4,11 1,-3 0,-9 0,-13 1,2 2,-1 2,5 1,-3 2,-4 1,-7 0,-3 0,-8 -1,-10l1 7c-2,-1 -3,2 -3,-4 0,3 -1,6 -1,11l-1 0c0,-5 1,-13 -1,-16l1 7c-1,0 -1,0 -1,0 0,-1 -1,-1 -1,-1 -1,-3 0,-3 -1,-5 -1,3 -1,21 2,23z"/>
  <path fill="#FF9494" d="M94 704l1 -3c-6,7 -17,6 -23,-2 -2,-3 -3,-9 -1,-13 2,-6 6,-5 7,-9l-1 -1c-1,3 -9,5 -9,17 0,9 14,21 26,11z"/>
  <path fill="#FDA5A5" d="M203 821c-7,3 -14,4 -19,-2 -8,-9 -1,-14 -1,-20l-2 -1 1 1c-4,6 -5,11 -2,17 2,3 5,9 12,9 1,0 5,-1 7,-1 3,0 3,0 4,-3z"/>
  <path fill="#FEAEAE" d="M471 738l1 2c6,-3 8,-6 16,-4 5,1 7,5 10,10 2,-9 -9,-11 -11,-13 -4,1 -6,1 -9,2 -3,0 -4,3 -7,3z"/>
  <path fill="#FFB4B4" d="M737 745c2,-1 2,1 4,-5 2,-7 -1,-13 -8,-18l-3 1c10,4 12,13 7,22z"/>
  <path fill="#FEAAAA" d="M469 755c3,3 3,5 7,8 3,2 7,4 11,2l3 2 -2 -3c-5,0 -8,0 -12,-3 -4,-3 -4,-5 -6,-8l-1 2z"/>
  <path fill="#FFBABA" d="M16 528c6,-8 9,-12 20,-8 0,-3 -1,-3 -5,-3 -3,0 -2,-1 -6,1 -5,2 -9,4 -9,10z"/>
  <path fill="#FEAAAA" d="M283 609c4,-8 13,-10 21,-5 -1,-4 -2,-4 -6,-4 0,0 -5,0 -6,0 -4,0 -10,4 -9,9z"/>
  <path fill="#FF9999" d="M287 827c1,9 17,5 19,3 3,-3 1,0 1,-4 -8,7 -11,6 -20,1z"/>
  <path fill="#FF8383" d="M309 621l1 0c2,-5 3,-13 -3,-14 3,7 3,7 2,14z"/>
  <path fill="#343434" d="M296 631l-2 -1c0,5 -2,11 0,15 3,-3 1,-2 1,-6 0,-3 1,-6 1,-8z"/>
  <path fill="#FFBDBD" d="M530 861c-6,2 -9,-1 -14,-5 -1,3 3,5 6,6 1,1 4,1 5,1 5,1 3,0 3,-2z"/>
  <path fill="#EFAAAA" d="M276 679c2,3 1,2 3,2 4,-3 7,-4 9,-6l1 0 1 -2c-3,0 -4,2 -7,3 -1,1 -3,2 -5,4l-2 -1z"/>
  <path fill="#FF9E9E" d="M717 725c7,-3 5,-4 13,-2l0 -2c-5,-1 -11,-1 -13,4z"/>
  <path fill="#FEAEAE" d="M674 968c-5,1 -8,1 -13,-2l0 3c4,0 3,2 10,1 3,-1 2,0 3,-2z"/>
  <path fill="#FFA1A1" d="M44 529l0 -3c-3,-4 -3,-7 -8,-6 5,5 4,2 8,9z"/>
  <path fill="#F58787" d="M530 861c5,2 5,-1 9,-3l0 -2c-3,3 -4,3 -9,5z"/>
  <path fill="#C2C4C4" d="M647 935c2,4 1,2 5,4 1,0 3,2 4,2l-7 -8c0,4 0,2 -2,2z"/>
  <path fill="#FFBDBD" d="M684 952l0 -4c-1,-2 0,0 -2,-3 -3,-3 0,-1 -3,-2 1,2 3,6 5,9z"/>
  <path fill="#343434" d="M217 643c-5,0 -4,-1 -6,0 0,1 0,2 3,2 5,0 2,1 3,-2z"/>
  <path fill="#FFB4B4" d="M203 821c4,1 4,-2 4,-5l-4 5z"/>
  <path fill="#FFB4B4" d="M678 965c4,0 4,-1 5,-5l-5 5z"/>
  <polygon fill="#3C3C3C" points="554,829 557,832 559,829 "/>
  <path fill="#FFBDBD" d="M661 966l-5 -4c1,3 2,4 5,4z"/>
  <path fill="#FEAEAE" d="M674 968c4,1 4,1 4,-3l-4 3z"/>
  <path fill="#FFC4C4" d="M286 826c-2,-3 -1,-3 -4,-4 1,3 1,3 4,4z"/>
  <path fill="#2C2C2C" d="M264 676c2,-2 2,1 1,-4 -2,4 -3,0 -1,4z"/>
  <path fill="#FEAEAE" d="M516 856l-2 -4c-1,3 -1,3 2,4z"/>
  <path fill="#FFB4B4" d="M307 806c0,-3 -1,-2 -3,-2l3 2z"/>
  <path fill="#FEAEAE" d="M310 809c-2,-4 0,-3 -3,-3l3 3z"/>
  <path fill="#191919" d="M215 770c2,-3 1,0 0,-3 -1,2 -2,1 0,3z"/>
  <polygon fill="#FFB4B4" points="306,605 306,603 304,604 "/>
  <polygon fill="#FFCECE" points="287,827 286,826 285,828 "/>
  <polygon fill="#FFBDBD" points="307,607 308,605 306,605 "/>
 </g>
</svg>
